<?xml version="1.0" encoding="UTF-8" standalone="no"?>
<svg width="30px" height="30px" viewBox="0 0 30 30" version="1.1" xmlns="http://www.w3.org/2000/svg" xmlns:xlink="http://www.w3.org/1999/xlink">
    <!-- Generator: Sketch 3.8.1 (29687) - http://www.bohemiancoding.com/sketch -->
    <title>01d</title>
    <desc>Created with Sketch.</desc>
    <defs></defs>
    <g id="Page-1" stroke="none" stroke-width="1" fill="none" fill-rule="evenodd">
        <g id="Desktop-HD" transform="translate(-268.000000, -141.000000)" fill="#FFFFFF">
            <g id="01d" transform="translate(268.000000, 141.000000)">
                <g id="Layer_1">
                    <g id="Group">
                        <path d="M15,7.74725275 C11.010989,7.74725275 7.74725275,11.010989 7.74725275,15 C7.74725275,18.989011 11.010989,22.2527473 15,22.2527473 C18.989011,22.2527473 22.2527473,18.989011 22.2527473,15 C22.2527473,11.010989 18.989011,7.74725275 15,7.74725275 L15,7.74725275 Z M15,19.6153846 C12.4615385,19.6153846 10.3846154,17.5384615 10.3846154,15 C10.3846154,12.4615385 12.4615385,10.3846154 15,10.3846154 C17.5384615,10.3846154 19.6153846,12.4615385 19.6153846,15 C19.6153846,17.5384615 17.5384615,19.6153846 15,19.6153846 L15,19.6153846 Z" id="Shape"></path>
                        <path d="M15,5.34065934 C15.7252747,5.34065934 16.3186813,4.74725275 16.3186813,4.02197802 L16.3186813,1.35164835 C16.3186813,0.626373626 15.7252747,0.032967033 15,0.032967033 C14.2747253,0.032967033 13.6813187,0.626373626 13.6813187,1.35164835 L13.6813187,4.02197802 C13.6813187,4.78021978 14.2747253,5.34065934 15,5.34065934 L15,5.34065934 Z" id="Shape"></path>
                        <path d="M28.6483516,13.6813187 L25.978022,13.6813187 C25.2527473,13.6813187 24.6593407,14.2747253 24.6593407,15 C24.6593407,15.7252747 25.2527473,16.3186813 25.978022,16.3186813 L28.6483516,16.3186813 C29.3736264,16.3186813 29.967033,15.7252747 29.967033,15 C29.967033,14.2747253 29.3736264,13.6813187 28.6483516,13.6813187 L28.6483516,13.6813187 Z" id="Shape"></path>
                        <path d="M15,24.6593407 C14.2747253,24.6593407 13.6813187,25.2527473 13.6813187,25.978022 L13.6813187,28.6483516 C13.6813187,29.3736264 14.2747253,29.967033 15,29.967033 C15.7252747,29.967033 16.3186813,29.3736264 16.3186813,28.6483516 L16.3186813,25.978022 C16.3186813,25.2197802 15.7252747,24.6593407 15,24.6593407 L15,24.6593407 Z" id="Shape"></path>
                        <path d="M5.34065934,15 C5.34065934,14.2747253 4.74725275,13.6813187 4.02197802,13.6813187 L1.35164835,13.6813187 C0.626373626,13.6813187 0.032967033,14.2747253 0.032967033,15 C0.032967033,15.7252747 0.626373626,16.3186813 1.35164835,16.3186813 L4.02197802,16.3186813 C4.78021978,16.3186813 5.34065934,15.7252747 5.34065934,15 L5.34065934,15 Z" id="Shape"></path>
                        <path d="M22.7472527,8.57142857 C23.0769231,8.57142857 23.4065934,8.43956044 23.6703297,8.17582418 L25.5824176,6.26373626 C26.1098901,5.73626374 26.1098901,4.91208791 25.5824176,4.38461538 C25.0549451,3.85714286 24.2307692,3.85714286 23.7032967,4.38461538 L21.7912088,6.2967033 C21.2637363,6.82417582 21.2637363,7.64835165 21.7912088,8.17582418 C22.0879121,8.43956044 22.4175824,8.57142857 22.7472527,8.57142857 L22.7472527,8.57142857 Z" id="Shape"></path>
                        <path d="M23.6703297,21.8241758 C23.1428571,21.2967033 22.3186813,21.2967033 21.7912088,21.8241758 C21.2637363,22.3516484 21.2637363,23.1758242 21.7912088,23.7032967 L23.7032967,25.6153846 C23.967033,25.8791209 24.2967033,26.010989 24.6263736,26.010989 C24.956044,26.010989 25.2857143,25.8791209 25.5494505,25.6153846 C26.0769231,25.0879121 26.0769231,24.2637363 25.5494505,23.7362637 L23.6703297,21.8241758 L23.6703297,21.8241758 Z" id="Shape"></path>
                        <path d="M6.32967033,21.8241758 L4.41758242,23.7362637 C3.89010989,24.2637363 3.89010989,25.0879121 4.41758242,25.6153846 C4.68131868,25.8791209 5.01098901,26.010989 5.34065934,26.010989 C5.67032967,26.010989 6,25.8791209 6.26373626,25.6153846 L8.17582418,23.7032967 C8.7032967,23.1758242 8.7032967,22.3516484 8.17582418,21.8241758 C7.68131868,21.2967033 6.82417582,21.2967033 6.32967033,21.8241758 L6.32967033,21.8241758 Z" id="Shape"></path>
                        <path d="M6.32967033,8.17582418 C6.56043956,8.43956044 6.92307692,8.57142857 7.25274725,8.57142857 C7.58241758,8.57142857 7.91208791,8.43956044 8.17582418,8.17582418 C8.7032967,7.64835165 8.7032967,6.82417582 8.17582418,6.2967033 L6.26373626,4.38461538 C5.73626374,3.85714286 4.91208791,3.85714286 4.38461538,4.38461538 C3.85714286,4.91208791 3.85714286,5.73626374 4.38461538,6.26373626 L6.32967033,8.17582418 L6.32967033,8.17582418 Z" id="Shape"></path>
                    </g>
                </g>
            </g>
        </g>
    </g>
</svg>