<?xml version="1.0" encoding="UTF-8" standalone="no"?>
<svg width="28px" height="24px" viewBox="0 0 28 24" version="1.1" xmlns="http://www.w3.org/2000/svg" xmlns:xlink="http://www.w3.org/1999/xlink">
    <!-- Generator: Sketch 3.8.1 (29687) - http://www.bohemiancoding.com/sketch -->
    <title>01n</title>
    <desc>Created with Sketch.</desc>
    <defs></defs>
    <g id="Page-1" stroke="none" stroke-width="1" fill="none" fill-rule="evenodd">
        <g id="Desktop-HD" transform="translate(-284.000000, -359.000000)" fill="#FFFFFF">
            <g id="01n" transform="translate(284.000000, 359.000000)">
                <g id="Layer_1">
                    <g id="Group">
                        <path d="M19.4506667,15.9786667 C18.6666667,16.24 17.8453333,16.352 17.024,16.352 C14.224,16.352 11.648,14.8586667 10.2666667,12.4693333 C8.43733333,9.296 9.10933333,5.22666667 11.8346667,2.76266667 C12.32,2.352 12.4693333,1.64266667 12.208,1.08266667 C11.9466667,0.485333333 11.3493333,0.112 10.7146667,0.186666667 C8.96,0.298666667 7.28,0.821333333 5.74933333,1.71733333 C0.261333333,4.928 -1.64266667,12.0213333 1.568,17.5466667 C3.62133333,21.0933333 7.46666667,23.3333333 11.5733333,23.3333333 C13.5893333,23.3333333 15.6053333,22.8106667 17.36,21.7653333 C18.8906667,20.8693333 20.16,19.712 21.168,18.2186667 C21.5413333,17.696 21.504,16.9866667 21.1306667,16.464 C20.72,15.9786667 20.048,15.792 19.4506667,15.9786667 L19.4506667,15.9786667 Z M11.5733333,20.3466667 C8.512,20.3466667 5.67466667,18.704 4.144,16.0533333 C1.792,12.0213333 3.136,6.832 7.13066667,4.40533333 C5.824,7.46666667 5.97333333,11.0133333 7.69066667,14 C9.37066667,16.912 12.3573333,18.8906667 15.7173333,19.3013333 C14.448,19.9733333 13.0293333,20.3466667 11.5733333,20.3466667 L11.5733333,20.3466667 Z" id="Shape"></path>
                        <path d="M16.4266667,10.3413333 C16.7626667,10.3413333 17.0986667,10.192 17.36,9.968 C17.6213333,9.744 17.7333333,9.408 17.7333333,9.03466667 C17.7333333,8.69866667 17.584,8.36266667 17.36,8.10133333 C16.8746667,7.616 16.016,7.616 15.5306667,8.10133333 C15.2693333,8.32533333 15.1573333,8.69866667 15.1573333,9.03466667 C15.1573333,9.37066667 15.3066667,9.70666667 15.5306667,9.968 C15.7546667,10.192 16.0906667,10.3413333 16.4266667,10.3413333 L16.4266667,10.3413333 Z" id="Shape"></path>
                        <path d="M21.6533333,0.634666667 C21.2053333,0.634666667 20.7946667,0.821333333 20.4586667,1.12 C20.16,1.41866667 19.9733333,1.86666667 19.9733333,2.31466667 C19.9733333,2.76266667 20.16,3.17333333 20.4586667,3.50933333 C20.7573333,3.808 21.2053333,3.99466667 21.6533333,3.99466667 C22.1013333,3.99466667 22.512,3.808 22.848,3.50933333 C23.1466667,3.21066667 23.3333333,2.76266667 23.3333333,2.31466667 C23.3333333,1.86666667 23.1466667,1.456 22.848,1.12 C22.512,0.821333333 22.1013333,0.634666667 21.6533333,0.634666667 L21.6533333,0.634666667 Z" id="Shape"></path>
                        <path d="M27.552,10.2293333 C27.2906667,9.968 26.88,9.78133333 26.5066667,9.78133333 C26.1333333,9.78133333 25.7226667,9.93066667 25.4613333,10.2293333 C25.2,10.4906667 25.0133333,10.9013333 25.0133333,11.2746667 C25.0133333,11.648 25.1626667,12.0586667 25.4613333,12.32 C25.76,12.5813333 26.1333333,12.768 26.5066667,12.768 C26.88,12.768 27.2906667,12.6186667 27.552,12.32 C27.8506667,12.0213333 28,11.648 28,11.2746667 C28,10.9013333 27.8506667,10.4906667 27.552,10.2293333 L27.552,10.2293333 Z" id="Shape"></path>
                    </g>
                </g>
            </g>
        </g>
    </g>
</svg>