<?xml version="1.0" encoding="UTF-8" standalone="no"?>
<svg width="30px" height="29px" viewBox="0 0 30 29" version="1.1" xmlns="http://www.w3.org/2000/svg" xmlns:xlink="http://www.w3.org/1999/xlink">
    <!-- Generator: Sketch 3.8.1 (29687) - http://www.bohemiancoding.com/sketch -->
    <title>02d</title>
    <desc>Created with Sketch.</desc>
    <defs></defs>
    <g id="Page-1" stroke="none" stroke-width="1" fill="none" fill-rule="evenodd">
        <g id="Desktop-HD" transform="translate(-740.000000, -330.000000)" fill="#FFFFFF">
            <g id="02d" transform="translate(740.000000, 330.000000)">
                <g id="Layer_1">
                    <g id="Group">
                        <path d="M16.978022,18.1318681 L16.6153846,18.1318681 C16.4835165,17.6043956 16.2857143,17.010989 15.956044,16.3846154 C14.8681319,14.3406593 12.9230769,13.2197802 10.5164835,13.2197802 C8.07692308,13.2197802 6.13186813,14.3406593 5.07692308,16.3846154 C4.74725275,17.043956 4.54945055,17.7032967 4.41758242,18.2307692 C1.84615385,18.6923077 0.0659340659,20.7032967 0.0659340659,23.3736264 C0.0659340659,26.0769231 1.97802198,28.1868132 4.61538462,28.5824176 C4.74725275,28.6153846 4.91208791,28.6483516 5.04395604,28.6483516 L16.978022,28.6483516 C20.1098901,28.6483516 22.4835165,26.3736264 22.4835165,23.3736264 C22.4835165,20.3406593 20.1758242,18.1318681 16.978022,18.1318681 L16.978022,18.1318681 Z M16.978022,26.010989 L5.57142857,26.010989 C3.59340659,26.010989 2.7032967,24.6593407 2.7032967,23.3736264 C2.7032967,21.7912088 3.85714286,20.7362637 5.57142857,20.7362637 C6.26373626,20.7362637 6.85714286,20.1758242 6.89010989,19.4505495 C6.89010989,19.4505495 6.92307692,18.4285714 7.45054945,17.4725275 C8.04395604,16.3516484 9.06593407,15.7912088 10.4835165,15.7912088 C11.9340659,15.7912088 12.956044,16.3516484 13.5824176,17.4725275 C14.1098901,18.4285714 14.1758242,19.4505495 14.1758242,19.4505495 C14.2087912,20.1428571 14.8021978,20.7032967 15.4945055,20.7032967 L16.978022,20.7032967 C18.6923077,20.7032967 19.8461538,21.7582418 19.8461538,23.3406593 C19.8461538,24.6593407 18.956044,26.010989 16.978022,26.010989 L16.978022,26.010989 Z" id="Shape"></path>
                        <path d="M26.010989,14.6043956 L25.8131868,14.6043956 C25.7142857,14.2417582 25.5824176,13.8461538 25.3516484,13.4175824 C24.5934066,11.967033 23.2087912,11.1758242 21.4945055,11.1758242 C21.2637363,11.1758242 21.0659341,11.1758242 20.8351648,11.2087912 C20.4725275,8.37362637 18.0659341,6.1978022 15.1318681,6.1978022 C12.4615385,6.1978022 10.1538462,8.01098901 9.52747253,10.6153846 C9.3956044,11.1428571 9.72527473,11.6703297 10.2527473,11.8021978 C10.7802198,11.9340659 11.3076923,11.6043956 11.4395604,11.0769231 C11.8351648,9.36263736 13.3516484,8.17582418 15.0989011,8.17582418 C17.1758242,8.17582418 18.8571429,9.85714286 18.8571429,11.9340659 C18.3296703,12.2967033 17.9010989,12.7912088 17.6043956,13.4175824 C17.0769231,14.4395604 17.043956,15.4285714 17.043956,15.5604396 C17.043956,16.0879121 17.4395604,16.5494505 18,16.5824176 C18.5274725,16.6153846 18.989011,16.1868132 19.021978,15.6263736 C19.0549451,15.1978022 19.2527473,13.1538462 21.4615385,13.1538462 C23.7032967,13.1538462 23.9340659,15.2307692 23.9340659,15.6263736 C23.967033,16.1538462 24.3956044,16.5824176 24.9230769,16.5824176 L25.9450549,16.5824176 C27.0989011,16.5824176 27.8571429,17.2747253 27.8571429,18.3296703 C27.8571429,19.1868132 27.2637363,20.0769231 25.9450549,20.0769231 L24.7582418,20.0769231 C24.1978022,20.0769231 23.7692308,20.5054945 23.7692308,21.0659341 C23.7692308,21.6263736 24.1978022,22.0549451 24.7582418,22.0549451 L25.9450549,22.0549451 C28.1538462,22.0549451 29.8351648,20.4395604 29.8351648,18.3296703 C29.9340659,16.1868132 28.2857143,14.6043956 26.010989,14.6043956 L26.010989,14.6043956 Z" id="Shape"></path>
                        <path d="M15.1648352,4.15384615 C15.7252747,4.15384615 16.1538462,3.72527473 16.1538462,3.16483516 L16.1538462,1.02197802 C16.1538462,0.461538462 15.7252747,0.032967033 15.1648352,0.032967033 C14.6043956,0.032967033 14.1758242,0.461538462 14.1758242,1.02197802 L14.1758242,3.16483516 C14.1758242,3.72527473 14.6043956,4.15384615 15.1648352,4.15384615 L15.1648352,4.15384615 Z" id="Shape"></path>
                        <path d="M4.21978022,12.956044 L6.36263736,12.956044 C6.92307692,12.956044 7.35164835,12.5274725 7.35164835,11.967033 C7.35164835,11.4065934 6.92307692,10.978022 6.36263736,10.978022 L4.21978022,10.978022 C3.65934066,10.978022 3.23076923,11.4065934 3.23076923,11.967033 C3.23076923,12.5274725 3.65934066,12.956044 4.21978022,12.956044 L4.21978022,12.956044 Z" id="Shape"></path>
                        <path d="M21.3956044,6.72527473 C21.6593407,6.72527473 21.8901099,6.62637363 22.0879121,6.42857143 L23.6043956,4.91208791 C24,4.51648352 24,3.89010989 23.6043956,3.52747253 C23.2087912,3.13186813 22.5824176,3.13186813 22.2197802,3.52747253 L20.7032967,5.04395604 C20.3076923,5.43956044 20.3076923,6.06593407 20.7032967,6.42857143 C20.8681319,6.62637363 21.1318681,6.72527473 21.3956044,6.72527473 L21.3956044,6.72527473 Z" id="Shape"></path>
                        <path d="M8.24175824,6.42857143 C8.43956044,6.62637363 8.7032967,6.72527473 8.93406593,6.72527473 C9.1978022,6.72527473 9.42857143,6.62637363 9.62637363,6.42857143 C10.021978,6.03296703 10.021978,5.40659341 9.62637363,5.04395604 L8.10989011,3.52747253 C7.71428571,3.13186813 7.08791209,3.13186813 6.72527473,3.52747253 C6.32967033,3.92307692 6.32967033,4.54945055 6.72527473,4.91208791 L8.24175824,6.42857143 L8.24175824,6.42857143 Z" id="Shape"></path>
                    </g>
                </g>
            </g>
        </g>
    </g>
</svg>