<?xml version="1.0" encoding="UTF-8" standalone="no"?>
<svg width="30px" height="27px" viewBox="0 0 30 27" version="1.1" xmlns="http://www.w3.org/2000/svg" xmlns:xlink="http://www.w3.org/1999/xlink">
    <!-- Generator: Sketch 3.8.1 (29687) - http://www.bohemiancoding.com/sketch -->
    <title>02n</title>
    <desc>Created with Sketch.</desc>
    <defs></defs>
    <g id="Page-1" stroke="none" stroke-width="1" fill="none" fill-rule="evenodd">
        <g id="Desktop-HD" transform="translate(-620.000000, -81.000000)" fill="#FFFFFF">
            <g id="02n" transform="translate(620.000000, 81.000000)">
                <g id="Layer_1">
                    <g id="Group">
                        <path d="M16.978022,15.7912088 L16.6153846,15.7912088 C16.4835165,15.2637363 16.2857143,14.6703297 15.956044,14.043956 C14.8681319,12 12.9230769,10.8791209 10.5164835,10.8791209 C8.07692308,10.8791209 6.13186813,12 5.07692308,14.043956 C4.74725275,14.7032967 4.54945055,15.3626374 4.41758242,15.8901099 C1.84615385,16.3516484 0.0659340659,18.3956044 0.0659340659,21.0659341 C0.0659340659,23.7692308 1.97802198,25.8461538 4.61538462,26.2747253 C4.74725275,26.3076923 4.91208791,26.3406593 5.04395604,26.3406593 L16.978022,26.3406593 C20.1098901,26.3406593 22.4835165,24.0659341 22.4835165,21.0659341 C22.4835165,18 20.1758242,15.7912088 16.978022,15.7912088 L16.978022,15.7912088 Z M16.978022,23.7032967 L5.57142857,23.7032967 C3.59340659,23.7032967 2.7032967,22.3516484 2.7032967,21.0659341 C2.7032967,19.4835165 3.85714286,18.4285714 5.57142857,18.4285714 C6.26373626,18.4285714 6.85714286,17.8681319 6.89010989,17.1428571 C6.89010989,17.1428571 6.92307692,16.1208791 7.45054945,15.1648352 C8.04395604,14.043956 9.06593407,13.4835165 10.4835165,13.4835165 C11.9340659,13.4835165 12.956044,14.043956 13.5824176,15.1648352 C14.1098901,16.1208791 14.1758242,17.1428571 14.1758242,17.1428571 C14.2087912,17.8351648 14.8021978,18.3956044 15.4945055,18.3956044 L16.978022,18.3956044 C18.6923077,18.3956044 19.8461538,19.4505495 19.8461538,21.032967 C19.8461538,22.3186813 18.956044,23.7032967 16.978022,23.7032967 L16.978022,23.7032967 Z" id="Shape"></path>
                        <path d="M26.010989,12.2637363 L25.8131868,12.2637363 C25.7142857,11.9010989 25.5824176,11.5054945 25.3516484,11.0769231 C24.5934066,9.62637363 23.2087912,8.83516484 21.4945055,8.83516484 C20.9010989,8.83516484 20.3736264,8.93406593 19.8791209,9.0989011 C18.1648352,9.16483516 16.6153846,8.27472527 15.7582418,6.79120879 C14.8681319,5.27472527 14.967033,3.32967033 15.956044,1.87912088 C16.1538462,1.58241758 16.1868132,1.18681319 16.021978,0.89010989 C15.8571429,0.56043956 15.5274725,0.362637363 15.1648352,0.32967033 C13.8461538,0.263736264 12.5604396,0.593406593 11.4065934,1.25274725 C8.73626374,2.8021978 7.38461538,5.96703297 8.14285714,8.96703297 C8.27472527,9.49450549 8.8021978,9.82417582 9.32967033,9.69230769 C9.85714286,9.56043956 10.1868132,9.03296703 10.0549451,8.50549451 C9.52747253,6.36263736 10.4835165,4.08791209 12.3956044,3 C12.7252747,2.8021978 13.0879121,2.63736264 13.4505495,2.53846154 C12.9230769,4.28571429 13.0879121,6.1978022 14.010989,7.81318681 C14.8681319,9.2967033 16.2197802,10.3516484 17.8021978,10.8131868 C17.7362637,10.9120879 17.7032967,11.010989 17.6373626,11.1098901 C17.1098901,12.1318681 17.0769231,13.1208791 17.0769231,13.2527473 C17.0769231,13.7802198 17.4725275,14.2417582 18.032967,14.2747253 C18.5604396,14.2747253 19.021978,13.8791209 19.0549451,13.3186813 C19.0879121,12.8901099 19.2857143,10.8461538 21.4945055,10.8461538 C23.7362637,10.8461538 23.967033,12.9230769 23.967033,13.3186813 C24,13.8461538 24.4285714,14.2747253 24.956044,14.2747253 L25.978022,14.2747253 C27.1318681,14.2747253 27.8901099,14.967033 27.8901099,16.021978 C27.8901099,16.8791209 27.2967033,17.7692308 25.978022,17.7692308 L24.7912088,17.7692308 C24.2307692,17.7692308 23.8021978,18.1978022 23.8021978,18.7582418 C23.8021978,19.3186813 24.2307692,19.7472527 24.7912088,19.7472527 L25.978022,19.7472527 C28.1868132,19.7472527 29.8681319,18.1318681 29.8681319,16.021978 C29.9340659,13.8461538 28.2857143,12.2637363 26.010989,12.2637363 L26.010989,12.2637363 Z" id="Shape"></path>
                    </g>
                </g>
            </g>
        </g>
    </g>
</svg>