<?xml version="1.0" encoding="UTF-8" standalone="no"?>
<svg width="28px" height="20px" viewBox="0 0 28 20" version="1.1" xmlns="http://www.w3.org/2000/svg" xmlns:xlink="http://www.w3.org/1999/xlink">
    <!-- Generator: Sketch 3.8.1 (29687) - http://www.bohemiancoding.com/sketch -->
    <title>03n</title>
    <desc>Created with Sketch.</desc>
    <defs></defs>
    <g id="Page-1" stroke="none" stroke-width="1" fill="none" fill-rule="evenodd">
        <g id="Desktop-HD" transform="translate(-751.000000, -215.000000)" fill="#FFFFFF">
            <g id="03n" transform="translate(751.000000, 215.000000)">
                <g id="Layer_1">
                    <path d="M21.0202899,19.0724638 L6.33043478,19.0724638 C6.12753623,19.0724638 5.96521739,19.0318841 5.80289855,18.9913043 C2.55652174,18.5043478 0.202898551,15.9072464 0.202898551,12.5797101 C0.202898551,9.29275362 2.3942029,6.77681159 5.55942029,6.20869565 C5.72173913,5.55942029 5.96521739,4.74782609 6.37101449,3.93623188 C7.66956522,1.42028986 10.0231884,0.0405797101 13.0666667,0.0405797101 C16.0695652,0.0405797101 18.4637681,1.42028986 19.7623188,3.93623188 C20.1681159,4.70724638 20.4115942,5.47826087 20.573913,6.08695652 L21.0202899,6.08695652 C24.9565217,6.08695652 27.7971014,8.8057971 27.7971014,12.5797101 C27.7971014,16.2724638 24.8753623,19.0724638 21.0202899,19.0724638 L21.0202899,19.0724638 Z M6.97971014,15.826087 L21.0202899,15.826087 C23.4550725,15.826087 24.5507246,14.1623188 24.5507246,12.5797101 C24.5507246,10.6318841 23.1304348,9.33333333 21.0202899,9.33333333 L19.1942029,9.33333333 C18.342029,9.33333333 17.6115942,8.64347826 17.5710145,7.79130435 C17.5710145,7.79130435 17.4898551,6.53333333 16.8405797,5.35652174 C16.0695652,3.93623188 14.8115942,3.28695652 13.026087,3.28695652 C8.84637681,3.24637681 8.60289855,7.30434783 8.60289855,7.75072464 C8.56231884,8.64347826 7.87246377,9.33333333 6.97971014,9.33333333 C4.86956522,9.33333333 3.44927536,10.6318841 3.44927536,12.5797101 C3.44927536,14.1217391 4.54492754,15.826087 6.97971014,15.826087 L6.97971014,15.826087 Z" id="Shape"></path>
                </g>
            </g>
        </g>
    </g>
</svg>