<?xml version="1.0" encoding="UTF-8" standalone="no"?>
<svg width="30px" height="18px" viewBox="0 0 30 18" version="1.1" xmlns="http://www.w3.org/2000/svg" xmlns:xlink="http://www.w3.org/1999/xlink">
    <!-- Generator: Sketch 3.8.1 (29687) - http://www.bohemiancoding.com/sketch -->
    <title>04d</title>
    <desc>Created with Sketch.</desc>
    <defs></defs>
    <g id="Page-1" stroke="none" stroke-width="1" fill="none" fill-rule="evenodd">
        <g id="Desktop-HD" transform="translate(-505.000000, -336.000000)" fill="#FFFFFF">
            <g id="04d" transform="translate(505.000000, 336.000000)">
                <g id="Layer_1">
                    <g id="Group">
                        <path d="M16.978022,6.92307692 L16.6153846,6.92307692 C16.4835165,6.3956044 16.2857143,5.8021978 15.956044,5.17582418 C14.8681319,3.13186813 12.9230769,2.01098901 10.5164835,2.01098901 C8.07692308,2.01098901 6.13186813,3.13186813 5.07692308,5.17582418 C4.74725275,5.83516484 4.54945055,6.49450549 4.41758242,7.02197802 C1.84615385,7.51648352 0.0659340659,9.52747253 0.0659340659,12.1978022 C0.0659340659,14.9010989 1.97802198,17.010989 4.61538462,17.4065934 C4.74725275,17.4395604 4.91208791,17.4725275 5.04395604,17.4725275 L16.978022,17.4725275 C20.1098901,17.4725275 22.4835165,15.1978022 22.4835165,12.1978022 C22.4835165,9.16483516 20.1758242,6.92307692 16.978022,6.92307692 L16.978022,6.92307692 Z M16.978022,14.8351648 L5.57142857,14.8351648 C3.59340659,14.8351648 2.7032967,13.4835165 2.7032967,12.1978022 C2.7032967,10.6153846 3.85714286,9.56043956 5.57142857,9.56043956 C6.2967033,9.56043956 6.85714286,9 6.89010989,8.27472527 C6.89010989,7.91208791 7.08791209,4.61538462 10.4835165,4.61538462 C11.9340659,4.61538462 12.956044,5.17582418 13.5824176,6.2967033 C14.1098901,7.25274725 14.1758242,8.27472527 14.1758242,8.27472527 C14.2087912,8.96703297 14.8021978,9.52747253 15.4945055,9.52747253 L16.978022,9.52747253 C18.6923077,9.52747253 19.8461538,10.5824176 19.8461538,12.1648352 C19.8461538,13.4835165 18.956044,14.8351648 16.978022,14.8351648 L16.978022,14.8351648 Z" id="Shape"></path>
                        <path d="M26.010989,3.42857143 L25.8131868,3.42857143 C25.7142857,3.06593407 25.5824176,2.67032967 25.3516484,2.24175824 C24.5934066,0.791208791 23.2087912,8.8817842e-16 21.4945055,8.8817842e-16 C19.7802198,8.8817842e-16 18.3956044,0.791208791 17.6703297,2.24175824 C17.1428571,3.26373626 17.1098901,4.25274725 17.1098901,4.38461538 C17.1098901,4.91208791 17.5054945,5.37362637 18.0659341,5.40659341 C18.5934066,5.43956044 19.0549451,5.01098901 19.0879121,4.45054945 C19.1208791,4.02197802 19.3186813,1.97802198 21.5274725,1.97802198 C23.7692308,1.97802198 24,4.05494505 24,4.45054945 C24.032967,4.97802198 24.4615385,5.40659341 24.989011,5.40659341 L26.010989,5.40659341 C27.1648352,5.40659341 27.9230769,6.0989011 27.9230769,7.15384615 C27.9230769,8.01098901 27.3296703,8.9010989 26.010989,8.9010989 L24.8241758,8.9010989 C24.2637363,8.9010989 23.8351648,9.32967033 23.8351648,9.89010989 C23.8351648,10.4505495 24.2637363,10.8791209 24.8241758,10.8791209 L26.010989,10.8791209 C28.2197802,10.8791209 29.9010989,9.26373626 29.9010989,7.15384615 C29.9340659,4.97802198 28.2857143,3.42857143 26.010989,3.42857143 L26.010989,3.42857143 Z" id="Shape"></path>
                    </g>
                </g>
            </g>
        </g>
    </g>
</svg>