<?xml version="1.0" encoding="UTF-8" standalone="no"?>
<svg width="26px" height="28px" viewBox="0 0 26 28" version="1.1" xmlns="http://www.w3.org/2000/svg" xmlns:xlink="http://www.w3.org/1999/xlink">
    <!-- Generator: Sketch 3.8.1 (29687) - http://www.bohemiancoding.com/sketch -->
    <title>09d</title>
    <desc>Created with Sketch.</desc>
    <defs></defs>
    <g id="Page-1" stroke="none" stroke-width="1" fill="none" fill-rule="evenodd">
        <g id="Desktop-HD" transform="translate(-417.000000, -537.000000)" fill="#FFFFFF">
            <g id="09d" transform="translate(417.000000, 537.000000)">
                <g id="Layer_1">
                    <g id="Group">
                        <path d="M6.91864407,0.484745763 C5.99322034,0.220338983 5.02372881,0.793220339 4.75932203,1.71864407 L3.78983051,5.28813559 C3.52542373,6.21355932 4.09830508,7.18305085 5.02372881,7.44745763 C5.1559322,7.49152542 5.33220339,7.49152542 5.46440678,7.49152542 C6.25762712,7.49152542 6.96271186,6.96271186 7.18305085,6.16949153 L8.15254237,2.6 C8.41694915,1.67457627 7.8440678,0.705084746 6.91864407,0.484745763 L6.91864407,0.484745763 Z" id="Shape"></path>
                        <path d="M24.5457627,0.484745763 C23.620339,0.220338983 22.6508475,0.793220339 22.3864407,1.71864407 L21.4169492,5.28813559 C21.1525424,6.21355932 21.7254237,7.18305085 22.6508475,7.44745763 C22.7830508,7.49152542 22.959322,7.49152542 23.0915254,7.49152542 C23.8847458,7.49152542 24.5898305,6.96271186 24.8101695,6.16949153 L25.779661,2.6 C26.0440678,1.67457627 25.4711864,0.705084746 24.5457627,0.484745763 L24.5457627,0.484745763 Z" id="Shape"></path>
                        <path d="M13.9254237,7.09491525 C13,6.83050847 12.0305085,7.40338983 11.7661017,8.32881356 L10.7966102,11.8983051 C10.5322034,12.8237288 11.1050847,13.7932203 12.0305085,14.0576271 C12.1627119,14.1016949 12.3389831,14.1016949 12.4711864,14.1016949 C13.2644068,14.1016949 13.9694915,13.5728814 14.1898305,12.779661 L15.159322,9.21016949 C15.4237288,8.28474576 14.8949153,7.31525424 13.9254237,7.09491525 L13.9254237,7.09491525 Z" id="Shape"></path>
                        <path d="M3.34915254,13.7050847 C2.42372881,13.440678 1.45423729,14.0135593 1.18983051,14.9389831 L0.220338983,18.5084746 C-0.0440677966,19.4338983 0.528813559,20.4033898 1.45423729,20.6677966 C1.58644068,20.7118644 1.76271186,20.7118644 1.89491525,20.7118644 C2.68813559,20.7118644 3.39322034,20.1830508 3.61355932,19.3898305 L4.58305085,15.820339 C4.84745763,14.8949153 4.27457627,13.9254237 3.34915254,13.7050847 L3.34915254,13.7050847 Z" id="Shape"></path>
                        <path d="M20.9762712,13.7050847 C20.0508475,13.440678 19.0813559,14.0135593 18.8169492,14.9389831 L17.8474576,18.5084746 C17.5830508,19.4338983 18.1559322,20.4033898 19.0813559,20.6677966 C19.2135593,20.7118644 19.3898305,20.7118644 19.5220339,20.7118644 C20.3152542,20.7118644 21.020339,20.1830508 21.240678,19.3898305 L22.2101695,15.820339 C22.4745763,14.8949153 21.9016949,13.9254237 20.9762712,13.7050847 L20.9762712,13.7050847 Z" id="Shape"></path>
                        <path d="M10.4,20.3152542 C9.47457627,20.0508475 8.50508475,20.6237288 8.24067797,21.5491525 L7.27118644,25.1186441 C7.00677966,26.0440678 7.57966102,27.0135593 8.50508475,27.2779661 C8.63728814,27.3220339 8.81355932,27.3220339 8.94576271,27.3220339 C9.73898305,27.3220339 10.4440678,26.7932203 10.6644068,26 L11.6338983,22.4305085 C11.8983051,21.5050847 11.3254237,20.5355932 10.4,20.3152542 L10.4,20.3152542 Z" id="Shape"></path>
                    </g>
                </g>
            </g>
        </g>
    </g>
</svg>