<?xml version="1.0" encoding="UTF-8" standalone="no"?>
<svg width="30px" height="27px" viewBox="0 0 30 27" version="1.1" xmlns="http://www.w3.org/2000/svg" xmlns:xlink="http://www.w3.org/1999/xlink">
    <!-- Generator: Sketch 3.8.1 (29687) - http://www.bohemiancoding.com/sketch -->
    <title>09n</title>
    <desc>Created with Sketch.</desc>
    <defs></defs>
    <g id="Page-1" stroke="none" stroke-width="1" fill="none" fill-rule="evenodd">
        <g id="Desktop-HD" transform="translate(-133.000000, -460.000000)" fill="#FFFFFF">
            <g id="09n" transform="translate(133.000000, 460.000000)">
                <g id="Layer_1">
                    <g id="Group">
                        <path d="M29.4886364,8.79545455 C29.2840909,8.48863636 28.9090909,8.31818182 28.5681818,8.35227273 C26.9318182,8.48863636 25.3295455,7.63636364 24.5113636,6.20454545 C23.6931818,4.77272727 23.7613636,2.96590909 24.6818182,1.63636364 C24.8863636,1.32954545 24.9204545,0.920454545 24.75,0.613636364 C24.5795455,0.272727273 24.2386364,0.0681818182 23.8636364,0.0340909091 C22.6022727,-0.0340909091 21.3409091,0.306818182 20.25,0.920454545 C18.4431818,1.97727273 17.2159091,3.78409091 16.9431818,5.86363636 C16.875,6.40909091 17.25,6.92045455 17.8295455,7.02272727 C18.375,7.09090909 18.9204545,6.71590909 18.9886364,6.13636364 C19.1931818,4.67045455 20.0113636,3.44318182 21.2727273,2.69318182 C21.5454545,2.52272727 21.8181818,2.42045455 22.125,2.31818182 C21.6477273,3.95454545 21.8522727,5.72727273 22.7386364,7.22727273 C23.625,8.72727273 25.0568182,9.78409091 26.6931818,10.1931818 C26.4545455,10.3977273 26.2159091,10.5681818 25.9431818,10.7386364 C25.6704545,10.9090909 25.3636364,11.0113636 25.0909091,11.1136364 C24.5454545,11.2840909 24.2727273,11.8636364 24.4431818,12.4090909 C24.5795455,12.8522727 24.9886364,13.125 25.3977273,13.125 C25.5,13.125 25.6022727,13.125 25.7045455,13.0568182 C26.1477273,12.9204545 26.5568182,12.7159091 26.9318182,12.5113636 C28.0227273,11.8636364 28.9090909,10.9431818 29.5227273,9.81818182 C29.7272727,9.51136364 29.6931818,9.10227273 29.4886364,8.79545455 L29.4886364,8.79545455 Z" id="Shape"></path>
                        <path d="M11.2159091,20.8295455 C10.9431818,20.8295455 10.7045455,20.9659091 10.5340909,21.1704545 C10.2272727,21.5795455 9.17045455,23.0454545 9.17045455,24.0681818 C9.17045455,25.3977273 10.1931818,26.2159091 11.2159091,26.2159091 C12.2386364,26.2159091 13.2613636,25.3977273 13.2613636,24.0681818 C13.2613636,23.0113636 12.2386364,21.5795455 11.8977273,21.1704545 C11.7272727,20.9659091 11.4886364,20.8295455 11.2159091,20.8295455 L11.2159091,20.8295455 Z" id="Shape"></path>
                        <path d="M8.48863636,16.9090909 C8.21590909,16.5681818 7.67045455,16.5681818 7.39772727,16.9090909 C7.15909091,17.2159091 6.375,18.3409091 6.375,19.125 C6.375,20.1477273 7.15909091,20.7613636 7.94318182,20.7613636 C8.72727273,20.7613636 9.51136364,20.1477273 9.51136364,19.125 C9.51136364,18.3409091 8.72727273,17.25 8.48863636,16.9090909 L8.48863636,16.9090909 Z" id="Shape"></path>
                        <path d="M13.2954545,14.9318182 C13.125,14.9318182 12.9886364,15 12.8863636,15.1363636 C12.6818182,15.4090909 12,16.3636364 12,17.0454545 C12,17.8977273 12.6477273,18.4090909 13.2954545,18.4090909 L13.2954545,18.4090909 C13.9431818,18.4090909 14.5909091,17.8977273 14.5909091,17.0454545 C14.5909091,16.6022727 13.8409091,14.9318182 13.2954545,14.9318182 L13.2954545,14.9318182 Z" id="Shape"></path>
                        <path d="M17.4886364,9.88636364 L17.1136364,9.88636364 C16.9772727,9.34090909 16.7727273,8.72727273 16.4318182,8.07954545 C15.3068182,5.93181818 13.2954545,4.77272727 10.7727273,4.77272727 C8.25,4.77272727 6.23863636,5.93181818 5.14772727,8.04545455 C4.80681818,8.72727273 4.60227273,9.40909091 4.46590909,9.95454545 C1.80681818,10.4659091 0,12.5795455 0,15.3409091 C0,17.3181818 0.988636364,19.0568182 2.69318182,20.0454545 C3.34090909,20.4204545 4.19318182,20.1818182 4.56818182,19.5340909 C4.94318182,18.8863636 4.70454545,18.0340909 4.05681818,17.6590909 C3.20454545,17.1818182 2.72727273,16.2954545 2.72727273,15.3409091 C2.72727273,13.7045455 3.92045455,12.6136364 5.69318182,12.6136364 C6.44318182,12.6136364 7.02272727,12.0340909 7.05681818,11.2840909 C7.05681818,10.9090909 7.26136364,7.5 10.7727273,7.5 C12.2727273,7.5 13.3295455,8.07954545 13.9772727,9.23863636 C14.5227273,10.2272727 14.5909091,11.2840909 14.5909091,11.2840909 C14.625,12 15.2386364,12.5795455 15.9545455,12.5795455 L17.4886364,12.5795455 C19.2613636,12.5795455 20.4545455,13.6704545 20.4545455,15.3068182 C20.4545455,16.6363636 19.5340909,18.0340909 17.4886364,18.0340909 L16.7045455,18.0340909 C15.9545455,18.0340909 15.3409091,18.6477273 15.3409091,19.3977273 C15.3409091,20.1477273 15.9545455,20.7613636 16.7045455,20.7613636 L17.4545455,20.7613636 C20.7272727,20.7954545 23.1818182,18.4431818 23.1818182,15.3409091 C23.1818182,12.1704545 20.7613636,9.88636364 17.4886364,9.88636364 L17.4886364,9.88636364 Z" id="Shape"></path>
                    </g>
                </g>
            </g>
        </g>
    </g>
</svg>