<?xml version="1.0" encoding="UTF-8" standalone="no"?>
<svg width="22px" height="24px" viewBox="0 0 22 24" version="1.1" xmlns="http://www.w3.org/2000/svg" xmlns:xlink="http://www.w3.org/1999/xlink">
    <!-- Generator: Sketch 3.8.1 (29687) - http://www.bohemiancoding.com/sketch -->
    <title>10d</title>
    <desc>Created with Sketch.</desc>
    <defs></defs>
    <g id="Page-1" stroke="none" stroke-width="1" fill="none" fill-rule="evenodd">
        <g id="Desktop-HD" transform="translate(-133.000000, -342.000000)" fill="#FFFFFF">
            <g id="10d" transform="translate(133.000000, 342.000000)">
                <g id="Layer_1">
                    <g id="Group">
                        <path d="M5.85423729,0.410169492 C5.07118644,0.186440678 4.25084746,0.671186441 4.02711864,1.45423729 L0.186440678,15.6610169 C-0.0372881356,16.4440678 0.447457627,17.2644068 1.23050847,17.4881356 C1.37966102,17.5254237 1.49152542,17.5254237 1.64067797,17.5254237 C2.31186441,17.5254237 2.90847458,17.0779661 3.09491525,16.4067797 L6.89830508,2.23728814 C7.1220339,1.41694915 6.67457627,0.596610169 5.85423729,0.410169492 L5.85423729,0.410169492 Z" id="Shape"></path>
                        <path d="M11.820339,6.00338983 C11.0372881,5.77966102 10.2169492,6.26440678 9.99322034,7.04745763 L6.11525424,21.2542373 C5.89152542,22.0372881 6.37627119,22.8576271 7.15932203,23.0813559 C7.30847458,23.1186441 7.42033898,23.1186441 7.56949153,23.1186441 C8.24067797,23.1186441 8.83728814,22.6711864 9.02372881,22 L12.8644068,7.83050847 C13.0508475,7.01016949 12.6033898,6.18983051 11.820339,6.00338983 L11.820339,6.00338983 Z" id="Shape"></path>
                        <path d="M20.7694915,0.410169492 C19.9864407,0.186440678 19.1661017,0.671186441 18.9423729,1.45423729 L15.1016949,15.6610169 C14.8779661,16.4440678 15.3627119,17.2644068 16.1457627,17.4881356 C16.2949153,17.5254237 16.4067797,17.5254237 16.5559322,17.5254237 C17.2271186,17.5254237 17.8237288,17.0779661 18.0101695,16.4067797 L21.8135593,2.23728814 C22.0372881,1.41694915 21.5898305,0.596610169 20.7694915,0.410169492 L20.7694915,0.410169492 Z" id="Shape"></path>
                    </g>
                </g>
            </g>
        </g>
    </g>
</svg>