<?xml version="1.0" encoding="UTF-8" standalone="no"?>
<svg width="30px" height="28px" viewBox="0 0 30 28" version="1.1" xmlns="http://www.w3.org/2000/svg" xmlns:xlink="http://www.w3.org/1999/xlink">
    <!-- Generator: Sketch 3.8.1 (29687) - http://www.bohemiancoding.com/sketch -->
    <title>10n</title>
    <desc>Created with Sketch.</desc>
    <defs></defs>
    <g id="Page-1" stroke="none" stroke-width="1" fill="none" fill-rule="evenodd">
        <g id="Desktop-HD" transform="translate(-417.000000, -286.000000)" fill="#FFFFFF">
            <g id="10n" transform="translate(417.000000, 286.000000)">
                <g id="Layer_1">
                    <g id="Group">
                        <path d="M7.90909091,15.8522727 C7.26136364,15.6818182 6.61363636,16.0568182 6.44318182,16.7045455 L4.53409091,23.7613636 C4.36363636,24.4090909 4.73863636,25.0568182 5.38636364,25.2272727 C5.48863636,25.2613636 5.59090909,25.2613636 5.69318182,25.2613636 C6.20454545,25.2613636 6.71590909,24.9204545 6.85227273,24.375 L8.76136364,17.3181818 C8.93181818,16.6704545 8.55681818,16.0227273 7.90909091,15.8522727 L7.90909091,15.8522727 Z" id="Shape"></path>
                        <path d="M11.1818182,18.6136364 C10.5340909,18.4431818 9.88636364,18.8181818 9.71590909,19.4659091 L7.80681818,26.5227273 C7.63636364,27.1704545 8.01136364,27.8181818 8.65909091,27.9886364 C8.76136364,28.0227273 8.86363636,28.0227273 8.96590909,28.0227273 C9.47727273,28.0227273 9.98863636,27.6818182 10.125,27.1363636 L12.0340909,20.0795455 C12.2045455,19.4659091 11.8295455,18.7840909 11.1818182,18.6136364 L11.1818182,18.6136364 Z" id="Shape"></path>
                        <path d="M15.9886364,15.8522727 C15.3409091,15.6818182 14.6931818,16.0568182 14.5227273,16.7045455 L12.6136364,23.7272727 C12.4431818,24.375 12.8181818,25.0227273 13.4659091,25.1931818 C13.5681818,25.2272727 13.6704545,25.2272727 13.7727273,25.2272727 C14.2840909,25.2272727 14.7954545,24.8863636 14.9318182,24.3409091 L16.8409091,17.2840909 C16.9772727,16.6704545 16.6022727,16.0227273 15.9886364,15.8522727 L15.9886364,15.8522727 Z" id="Shape"></path>
                        <path d="M17.4886364,10.125 L17.1136364,10.125 C16.9772727,9.57954545 16.7727273,8.96590909 16.4318182,8.31818182 C15.3068182,6.20454545 13.2954545,5.04545455 10.8068182,5.04545455 C8.28409091,5.04545455 6.27272727,6.20454545 5.18181818,8.31818182 C4.84090909,9 4.63636364,9.68181818 4.5,10.2272727 C1.80681818,10.7386364 0,12.8181818 0,15.5795455 C0,17.3522727 0.852272727,18.9886364 2.25,19.9772727 C2.86363636,20.4204545 3.71590909,20.2840909 4.15909091,19.6704545 C4.60227273,19.0568182 4.46590909,18.2045455 3.85227273,17.7613636 C3.17045455,17.2840909 2.76136364,16.4659091 2.76136364,15.5795455 C2.76136364,13.9431818 3.95454545,12.8522727 5.72727273,12.8522727 C6.47727273,12.8522727 7.05681818,12.2727273 7.09090909,11.5227273 C7.09090909,11.1477273 7.29545455,7.73863636 10.8068182,7.73863636 C12.3068182,7.73863636 13.3636364,8.31818182 14.0113636,9.47727273 C14.5568182,10.4659091 14.625,11.5227273 14.625,11.5227273 C14.6590909,12.2386364 15.2727273,12.8181818 15.9886364,12.8181818 L17.5227273,12.8181818 C19.2954545,12.8181818 20.4886364,13.9090909 20.4886364,15.5454545 C20.4886364,16.9090909 19.6022727,17.9318182 18.2727273,18.2045455 C17.5227273,18.3409091 17.0454545,19.0568182 17.1818182,19.8068182 C17.3181818,20.4545455 17.8636364,20.8977273 18.5113636,20.8977273 C18.6136364,20.8977273 18.6818182,20.8977273 18.7840909,20.8636364 C21.4090909,20.3522727 23.2159091,18.1704545 23.2159091,15.5113636 C23.1818182,12.4431818 20.7613636,10.125 17.4886364,10.125 L17.4886364,10.125 Z" id="Shape"></path>
                        <path d="M29.4886364,9.06818182 C29.2840909,8.76136364 28.9090909,8.59090909 28.5681818,8.625 C26.9318182,8.76136364 25.3295455,7.90909091 24.5113636,6.47727273 C23.6931818,5.04545455 23.7613636,3.23863636 24.6818182,1.90909091 C24.8863636,1.60227273 24.9204545,1.19318182 24.75,0.886363636 C24.5795455,0.545454545 24.2386364,0.340909091 23.8636364,0.306818182 C22.6022727,0.238636364 21.3409091,0.579545455 20.25,1.19318182 C18.4431818,2.25 17.2159091,4.05681818 16.9431818,6.13636364 C16.875,6.68181818 17.25,7.19318182 17.8295455,7.29545455 C18.375,7.36363636 18.8863636,6.98863636 18.9886364,6.40909091 C19.1931818,4.94318182 20.0113636,3.71590909 21.2727273,2.96590909 C21.5454545,2.79545455 21.8181818,2.69318182 22.125,2.59090909 C21.6477273,4.22727273 21.8522727,6 22.7386364,7.5 C23.625,9 25.0568182,10.0568182 26.6931818,10.4659091 C26.4545455,10.6704545 26.2159091,10.8409091 25.9431818,11.0113636 C25.6704545,11.1818182 25.3636364,11.2840909 25.0909091,11.3863636 C24.5454545,11.5568182 24.2727273,12.1363636 24.4431818,12.6818182 C24.5795455,13.125 24.9886364,13.3977273 25.3977273,13.3977273 C25.5,13.3977273 25.6022727,13.3977273 25.7045455,13.3295455 C26.1477273,13.1931818 26.5568182,12.9886364 26.9318182,12.7840909 C28.0227273,12.1363636 28.9090909,11.2159091 29.5227273,10.0909091 C29.7272727,9.75 29.6931818,9.375 29.4886364,9.06818182 L29.4886364,9.06818182 Z" id="Shape"></path>
                    </g>
                </g>
            </g>
        </g>
    </g>
</svg>