<?xml version="1.0" encoding="UTF-8" standalone="no"?>
<svg width="30px" height="28px" viewBox="0 0 30 28" version="1.1" xmlns="http://www.w3.org/2000/svg" xmlns:xlink="http://www.w3.org/1999/xlink">
    <!-- Generator: Sketch 3.8.1 (29687) - http://www.bohemiancoding.com/sketch -->
    <title>11d</title>
    <desc>Created with Sketch.</desc>
    <defs></defs>
    <g id="Page-1" stroke="none" stroke-width="1" fill="none" fill-rule="evenodd">
        <g id="Desktop-HD" transform="translate(-631.000000, -284.000000)" fill="#FFFFFF">
            <g id="11d" transform="translate(631.000000, 284.000000)">
                <g id="Layer_1">
                    <g id="Group">
                        <path d="M22.5217391,6.73913043 L22.0434783,6.73913043 C21.8695652,6.04347826 21.6086957,5.26086957 21.173913,4.43478261 C19.7391304,1.73913043 17.173913,0.260869565 14,0.260869565 C10.7826087,0.260869565 8.2173913,1.73913043 6.82608696,4.43478261 C6.39130435,5.30434783 6.13043478,6.17391304 5.95652174,6.86956522 C2.56521739,7.47826087 0.217391304,10.173913 0.217391304,13.6956522 C0.217391304,15.9565217 1.30434783,18.0434783 3.08695652,19.3043478 C3.86956522,19.8695652 4.95652174,19.6956522 5.52173913,18.9130435 C6.08695652,18.1304348 5.91304348,17.0434783 5.13043478,16.4782609 C4.26086957,15.8695652 3.73913043,14.826087 3.73913043,13.6956522 C3.73913043,11.6086957 5.26086957,10.2173913 7.52173913,10.2173913 C8.47826087,10.2173913 9.2173913,9.47826087 9.26086957,8.52173913 C9.26086957,8.04347826 9.52173913,3.69565217 14,3.69565217 C15.9130435,3.69565217 17.2608696,4.43478261 18.0869565,5.91304348 C18.7826087,7.17391304 18.8695652,8.52173913 18.8695652,8.52173913 C18.9130435,9.43478261 19.6956522,10.173913 20.6086957,10.173913 L22.5652174,10.173913 C24.826087,10.173913 26.3478261,11.5652174 26.3478261,13.6521739 C26.3478261,15.3913043 25.2173913,16.6956522 23.5217391,17.0434783 C22.5652174,17.2173913 21.9565217,18.1304348 22.1304348,19.0869565 C22.3043478,19.9130435 23,20.4782609 23.826087,20.4782609 C23.9565217,20.4782609 24.0434783,20.4782609 24.173913,20.4347826 C27.5217391,19.7826087 29.826087,17 29.826087,13.6086957 C29.7826087,9.69565217 26.7391304,6.73913043 22.5217391,6.73913043 L22.5217391,6.73913043 Z" id="Shape"></path>
                        <path d="M10.4782609,14.0434783 C9.65217391,13.826087 8.82608696,14.3043478 8.60869565,15.1304348 L7.13043478,20.6086957 C6.91304348,21.4347826 7.39130435,22.2608696 8.2173913,22.4782609 C8.34782609,22.5217391 8.47826087,22.5217391 8.60869565,22.5217391 C9.26086957,22.5217391 9.91304348,22.0869565 10.0869565,21.3913043 L11.5652174,15.9130435 C11.7391304,15.0869565 11.2608696,14.2608696 10.4782609,14.0434783 L10.4782609,14.0434783 Z" id="Shape"></path>
                        <path d="M6.52173913,23.6086957 C6.2173913,23.9130435 6.08695652,24.3043478 6.08695652,24.6956522 C6.08695652,25.0869565 6.26086957,25.4782609 6.52173913,25.7826087 C6.82608696,26.0434783 7.2173913,26.2173913 7.60869565,26.2173913 C8,26.2173913 8.39130435,26.0434783 8.69565217,25.7826087 C9,25.5217391 9.13043478,25.0869565 9.13043478,24.6956522 C9.13043478,24.3043478 8.95652174,23.9130435 8.69565217,23.6086957 C8.08695652,23.0434783 7.08695652,23.0434783 6.52173913,23.6086957 L6.52173913,23.6086957 Z" id="Shape"></path>
                        <path d="M20.173913,17.6521739 L18.2608696,17.6521739 L20.6521739,14.3043478 C20.7826087,14.0869565 20.826087,13.826087 20.6956522,13.6086957 C20.5652174,13.3913043 20.3478261,13.2608696 20.1304348,13.2608696 L15.3478261,13.2608696 C15.0869565,13.2608696 14.826087,13.4347826 14.7391304,13.6956522 L12.0869565,20.5652174 C12,20.7826087 12.0434783,21 12.173913,21.173913 C12.3043478,21.3478261 12.4782609,21.4347826 12.6956522,21.4347826 L12.6956522,21.4347826 L14.0869565,21.4347826 L12.2608696,26.2173913 C12.1304348,26.5217391 12.2608696,26.826087 12.5217391,27 C12.6086957,27.0434783 12.7391304,27.0869565 12.8695652,27.0869565 C13.0434783,27.0869565 13.2173913,27 13.3478261,26.8695652 L20.5652174,18.6956522 C20.7391304,18.5217391 20.7826087,18.2173913 20.6521739,18 C20.6521739,17.826087 20.4347826,17.6521739 20.173913,17.6521739 L20.173913,17.6521739 Z" id="Shape"></path>
                    </g>
                </g>
            </g>
        </g>
    </g>
</svg>