<?xml version="1.0" encoding="UTF-8" standalone="no"?>
<svg width="30px" height="26px" viewBox="0 0 30 26" version="1.1" xmlns="http://www.w3.org/2000/svg" xmlns:xlink="http://www.w3.org/1999/xlink">
    <!-- Generator: Sketch 3.8.1 (29687) - http://www.bohemiancoding.com/sketch -->
    <title>11n</title>
    <desc>Created with Sketch.</desc>
    <defs></defs>
    <g id="Page-1" stroke="none" stroke-width="1" fill="none" fill-rule="evenodd">
        <g id="Desktop-HD" transform="translate(-577.000000, -184.000000)" fill="#FFFFFF">
            <g id="11n" transform="translate(577.000000, 184.000000)">
                <g id="Layer_1">
                    <g id="Group">
                        <path d="M17.4886364,10.0568182 L17.1136364,10.0568182 C16.9772727,9.51136364 16.7727273,8.89772727 16.4318182,8.25 C15.3068182,6.13636364 13.2954545,4.97727273 10.8068182,4.97727273 C8.28409091,4.97727273 6.27272727,6.13636364 5.18181818,8.25 C4.84090909,8.93181818 4.63636364,9.61363636 4.5,10.1590909 C1.80681818,10.6704545 0,12.75 0,15.5113636 C0,17.2840909 0.852272727,18.9204545 2.25,19.9090909 C2.86363636,20.3522727 3.71590909,20.2159091 4.15909091,19.6022727 C4.60227273,18.9886364 4.46590909,18.1363636 3.85227273,17.6931818 C3.17045455,17.2159091 2.76136364,16.3977273 2.76136364,15.5113636 C2.76136364,13.875 3.95454545,12.7840909 5.72727273,12.7840909 C6.47727273,12.7840909 7.05681818,12.2045455 7.09090909,11.4545455 C7.09090909,11.0795455 7.29545455,7.67045455 10.8068182,7.67045455 C12.3068182,7.67045455 13.3636364,8.25 14.0113636,9.40909091 C14.5568182,10.3977273 14.625,11.4545455 14.625,11.4545455 C14.6590909,12.1704545 15.2727273,12.75 15.9886364,12.75 L17.5227273,12.75 C19.2954545,12.75 20.4886364,13.8409091 20.4886364,15.4772727 C20.4886364,16.8409091 19.6022727,17.8636364 18.2727273,18.1363636 C17.5227273,18.2727273 17.0454545,18.9886364 17.1818182,19.7386364 C17.3181818,20.3863636 17.8636364,20.8295455 18.5113636,20.8295455 C18.6136364,20.8295455 18.6818182,20.8295455 18.7840909,20.7954545 C21.4090909,20.2840909 23.2159091,18.1022727 23.2159091,15.4431818 C23.1818182,12.375 20.7613636,10.0568182 17.4886364,10.0568182 L17.4886364,10.0568182 Z" id="Shape"></path>
                        <path d="M29.4886364,9 C29.2840909,8.69318182 28.9090909,8.52272727 28.5681818,8.55681818 C26.9318182,8.69318182 25.3295455,7.84090909 24.5113636,6.40909091 C23.6931818,4.97727273 23.7613636,3.17045455 24.6818182,1.84090909 C24.8863636,1.53409091 24.9204545,1.125 24.75,0.818181818 C24.5795455,0.477272727 24.2386364,0.272727273 23.8636364,0.238636364 C22.6022727,0.170454545 21.3409091,0.511363636 20.25,1.125 C18.4431818,2.18181818 17.2159091,3.98863636 16.9431818,6.06818182 C16.875,6.61363636 17.25,7.125 17.8295455,7.22727273 C18.375,7.29545455 18.8863636,6.92045455 18.9886364,6.34090909 C19.1931818,4.875 20.0113636,3.64772727 21.2727273,2.89772727 C21.5454545,2.72727273 21.8181818,2.625 22.125,2.52272727 C21.6477273,4.15909091 21.8522727,5.93181818 22.7386364,7.43181818 C23.625,8.93181818 25.0568182,9.98863636 26.6931818,10.3977273 C26.4545455,10.6022727 26.2159091,10.7727273 25.9431818,10.9431818 C25.6704545,11.1136364 25.3636364,11.2159091 25.0909091,11.3181818 C24.5454545,11.4886364 24.2727273,12.0681818 24.4431818,12.6136364 C24.5795455,13.0568182 24.9886364,13.3295455 25.3977273,13.3295455 C25.5,13.3295455 25.6022727,13.3295455 25.7045455,13.2613636 C26.1477273,13.125 26.5568182,12.9204545 26.9318182,12.7159091 C28.0227273,12.0681818 28.9090909,11.1477273 29.5227273,10.0227273 C29.7272727,9.68181818 29.6931818,9.30681818 29.4886364,9 L29.4886364,9 Z" id="Shape"></path>
                        <path d="M7.90909091,15.7840909 C7.26136364,15.6136364 6.61363636,15.9886364 6.44318182,16.6363636 L4.53409091,23.6931818 C4.36363636,24.3409091 4.73863636,24.9886364 5.38636364,25.1590909 C5.48863636,25.1931818 5.59090909,25.1931818 5.69318182,25.1931818 C6.20454545,25.1931818 6.71590909,24.8522727 6.85227273,24.3068182 L8.76136364,17.25 C8.93181818,16.6022727 8.55681818,15.9545455 7.90909091,15.7840909 L7.90909091,15.7840909 Z" id="Shape"></path>
                        <path d="M15.5454545,18.6136364 L14.0454545,18.6136364 L15.9204545,15.9886364 C16.0227273,15.8181818 16.0568182,15.6136364 15.9545455,15.4431818 C15.8522727,15.2727273 15.6818182,15.1704545 15.5113636,15.1704545 L11.7613636,15.1704545 C11.5568182,15.1704545 11.3522727,15.3068182 11.2840909,15.5113636 L9.20454545,20.8977273 C9.13636364,21.0681818 9.17045455,21.2386364 9.27272727,21.375 C9.375,21.5113636 9.51136364,21.5795455 9.68181818,21.5795455 L9.68181818,21.5795455 L10.7727273,21.5795455 L9.34090909,25.3295455 C9.23863636,25.5681818 9.34090909,25.8068182 9.54545455,25.9431818 C9.61363636,25.9772727 9.71590909,26.0113636 9.81818182,26.0113636 C9.95454545,26.0113636 10.0909091,25.9431818 10.1931818,25.8409091 L15.8522727,19.4318182 C15.9886364,19.2954545 16.0227273,19.0568182 15.9204545,18.8863636 C15.9204545,18.75 15.75,18.6136364 15.5454545,18.6136364 L15.5454545,18.6136364 Z" id="Shape"></path>
                    </g>
                </g>
            </g>
        </g>
    </g>
</svg>