<?xml version="1.0" encoding="UTF-8" standalone="no"?>
<svg width="22px" height="25px" viewBox="0 0 22 25" version="1.1" xmlns="http://www.w3.org/2000/svg" xmlns:xlink="http://www.w3.org/1999/xlink">
    <!-- Generator: Sketch 3.8.1 (29687) - http://www.bohemiancoding.com/sketch -->
    <title>13d</title>
    <desc>Created with Sketch.</desc>
    <defs></defs>
    <g id="Page-1" stroke="none" stroke-width="1" fill="none" fill-rule="evenodd">
        <g id="Desktop-HD" transform="translate(-554.000000, -422.000000)" fill="#FFFFFF">
            <g id="13d" transform="translate(554.000000, 422.000000)">
                <g id="Layer_1">
                    <g id="Group">
                        <path d="M11,6.03829787 C12.0297872,6.03829787 12.8723404,5.19574468 12.8723404,4.16595745 L12.8723404,2.29361702 C12.8723404,1.26382979 12.0297872,0.421276596 11,0.421276596 C9.97021277,0.421276596 9.12765957,1.26382979 9.12765957,2.29361702 L9.12765957,4.16595745 C9.12765957,5.24255319 9.97021277,6.03829787 11,6.03829787 L11,6.03829787 Z" id="Shape"></path>
                        <path d="M11,10.0638298 C10.3914894,10.0638298 9.78297872,10.2978723 9.36170213,10.7659574 C8.94042553,11.187234 8.65957447,11.7957447 8.65957447,12.4042553 C8.65957447,13.012766 8.89361702,13.6212766 9.36170213,14.0425532 C9.78297872,14.4638298 10.3914894,14.7446809 11,14.7446809 C11.6085106,14.7446809 12.2170213,14.5106383 12.6382979,14.0425532 C13.0595745,13.6212766 13.3404255,13.012766 13.3404255,12.4042553 C13.3404255,11.7957447 13.106383,11.187234 12.6382979,10.7659574 C12.2170213,10.2978723 11.6085106,10.0638298 11,10.0638298 L11,10.0638298 Z" id="Shape"></path>
                        <path d="M11,18.7702128 C9.97021277,18.7702128 9.12765957,19.612766 9.12765957,20.6425532 L9.12765957,22.5148936 C9.12765957,23.5446809 9.97021277,24.387234 11,24.387234 C12.0297872,24.387234 12.8723404,23.5446809 12.8723404,22.5148936 L12.8723404,20.6425532 C12.8723404,19.5659574 12.0297872,18.7702128 11,18.7702128 L11,18.7702128 Z" id="Shape"></path>
                        <path d="M18.1148936,10.1574468 C18.4425532,10.1574468 18.7702128,10.0638298 19.0510638,9.92340426 L20.6893617,8.98723404 C21.5787234,8.47234043 21.906383,7.30212766 21.3914894,6.41276596 C20.8765957,5.52340426 19.706383,5.19574468 18.8170213,5.7106383 L17.1787234,6.64680851 C16.2893617,7.16170213 15.9617021,8.33191489 16.4765957,9.2212766 C16.8510638,9.82978723 17.4595745,10.1574468 18.1148936,10.1574468 L18.1148936,10.1574468 Z" id="Shape"></path>
                        <path d="M2.94893617,14.8851064 L1.3106383,15.8212766 C0.421276596,16.3361702 0.0936170213,17.506383 0.608510638,18.3957447 C0.936170213,19.0042553 1.59148936,19.3319149 2.24680851,19.3319149 C2.57446809,19.3319149 2.90212766,19.2382979 3.18297872,19.0978723 L4.8212766,18.1617021 C5.7106383,17.6468085 6.03829787,16.4765957 5.52340426,15.587234 C5.00851064,14.6978723 3.83829787,14.3702128 2.94893617,14.8851064 L2.94893617,14.8851064 Z" id="Shape"></path>
                        <path d="M20.6893617,15.8212766 L19.0510638,14.8851064 C18.1617021,14.3702128 16.9914894,14.6978723 16.4765957,15.587234 C15.9617021,16.4765957 16.2893617,17.6468085 17.1787234,18.1617021 L18.8170213,19.0978723 C19.0978723,19.2851064 19.4255319,19.3319149 19.7531915,19.3319149 C20.4085106,19.3319149 21.0170213,19.0042553 21.3914894,18.3957447 C21.906383,17.506383 21.5787234,16.3361702 20.6893617,15.8212766 L20.6893617,15.8212766 Z" id="Shape"></path>
                        <path d="M4.8212766,6.69361702 L3.18297872,5.75744681 C2.29361702,5.24255319 1.12340426,5.52340426 0.608510638,6.45957447 C0.0936170213,7.39574468 0.374468085,8.51914894 1.3106383,9.03404255 L2.94893617,9.97021277 C3.22978723,10.1574468 3.55744681,10.2042553 3.88510638,10.2042553 C4.54042553,10.2042553 5.14893617,9.87659574 5.52340426,9.26808511 C6.03829787,8.33191489 5.7106383,7.20851064 4.8212766,6.69361702 L4.8212766,6.69361702 Z" id="Shape"></path>
                    </g>
                </g>
            </g>
        </g>
    </g>
</svg>