<?xml version="1.0" encoding="UTF-8" standalone="no"?>
<svg width="30px" height="27px" viewBox="0 0 30 27" version="1.1" xmlns="http://www.w3.org/2000/svg" xmlns:xlink="http://www.w3.org/1999/xlink">
    <!-- Generator: Sketch 3.8.1 (29687) - http://www.bohemiancoding.com/sketch -->
    <title>13n</title>
    <desc>Created with Sketch.</desc>
    <defs></defs>
    <g id="Page-1" stroke="none" stroke-width="1" fill="none" fill-rule="evenodd">
        <g id="Desktop-HD" transform="translate(-417.000000, -147.000000)" fill="#FFFFFF">
            <g id="13n" transform="translate(417.000000, 147.000000)">
                <g id="Layer_1">
                    <g id="Group">
                        <path d="M10.9431818,17.4204545 C11.5227273,17.4204545 11.9659091,16.9772727 11.9659091,16.3977273 L11.9659091,15.4431818 C11.9659091,14.8636364 11.5227273,14.4204545 10.9431818,14.4204545 C10.3636364,14.4204545 9.92045455,14.8636364 9.92045455,15.4431818 L9.92045455,16.3977273 C9.92045455,16.9772727 10.3636364,17.4204545 10.9431818,17.4204545 L10.9431818,17.4204545 Z" id="Shape"></path>
                        <path d="M10.9431818,19.2272727 C10.5681818,19.2272727 10.2272727,19.3636364 9.98863636,19.6363636 C9.71590909,19.875 9.57954545,20.25 9.57954545,20.5909091 C9.57954545,20.9659091 9.71590909,21.3068182 9.98863636,21.5454545 C10.2272727,21.8181818 10.6022727,21.9545455 10.9431818,21.9545455 C11.2840909,21.9545455 11.6590909,21.8181818 11.8977273,21.5454545 C12.1363636,21.3068182 12.3068182,20.9318182 12.3068182,20.5909091 C12.3068182,20.25 12.1704545,19.875 11.8977273,19.6363636 C11.625,19.3636364 11.2840909,19.2272727 10.9431818,19.2272727 L10.9431818,19.2272727 Z" id="Shape"></path>
                        <path d="M10.9431818,23.7613636 C10.3636364,23.7613636 9.92045455,24.2045455 9.92045455,24.7840909 L9.92045455,25.7386364 C9.92045455,26.3181818 10.3636364,26.7613636 10.9431818,26.7613636 C11.5227273,26.7613636 11.9659091,26.3181818 11.9659091,25.7386364 L11.9659091,24.7840909 C11.9659091,24.2045455 11.4886364,23.7613636 10.9431818,23.7613636 L10.9431818,23.7613636 Z" id="Shape"></path>
                        <path d="M14.8977273,17.1136364 L14.0454545,17.5909091 C13.5681818,17.8636364 13.3977273,18.5113636 13.6704545,18.9886364 C13.875,19.3295455 14.2159091,19.5 14.5568182,19.5 C14.7272727,19.5 14.8977273,19.4659091 15.0681818,19.3636364 L15.9204545,18.8863636 C16.3977273,18.6136364 16.5681818,17.9659091 16.2954545,17.4886364 C15.9886364,17.0113636 15.375,16.8409091 14.8977273,17.1136364 L14.8977273,17.1136364 Z" id="Shape"></path>
                        <path d="M6.78409091,21.7840909 L5.93181818,22.2613636 C5.45454545,22.5340909 5.28409091,23.1818182 5.55681818,23.6590909 C5.76136364,24 6.10227273,24.1704545 6.44318182,24.1704545 C6.61363636,24.1704545 6.78409091,24.1363636 6.95454545,24.0340909 L7.80681818,23.5568182 C8.28409091,23.2840909 8.45454545,22.6363636 8.18181818,22.1590909 C7.90909091,21.6818182 7.29545455,21.5113636 6.78409091,21.7840909 L6.78409091,21.7840909 Z" id="Shape"></path>
                        <path d="M15.9204545,22.2954545 L15.0681818,21.8181818 C14.5909091,21.5454545 13.9431818,21.7159091 13.6704545,22.1931818 C13.3977273,22.6704545 13.5681818,23.3181818 14.0454545,23.5909091 L14.8977273,24.0681818 C15.0681818,24.1704545 15.2386364,24.2045455 15.4090909,24.2045455 C15.75,24.2045455 16.0909091,24.0340909 16.2954545,23.6931818 C16.5681818,23.1818182 16.3977273,22.5681818 15.9204545,22.2954545 L15.9204545,22.2954545 Z" id="Shape"></path>
                        <path d="M5.96590909,18.8863636 L6.81818182,19.3636364 C6.98863636,19.4659091 7.15909091,19.5 7.32954545,19.5 C7.67045455,19.5 8.01136364,19.3295455 8.21590909,18.9886364 C8.48863636,18.5113636 8.31818182,17.8636364 7.84090909,17.5909091 L6.98863636,17.1136364 C6.51136364,16.8409091 5.86363636,17.0113636 5.59090909,17.4886364 C5.28409091,18 5.45454545,18.6136364 5.96590909,18.8863636 L5.96590909,18.8863636 Z" id="Shape"></path>
                        <path d="M29.4886364,8.93181818 C29.2840909,8.625 28.9090909,8.45454545 28.5681818,8.48863636 C26.9318182,8.625 25.3295455,7.77272727 24.5113636,6.34090909 C23.6931818,4.90909091 23.7613636,3.10227273 24.6818182,1.77272727 C24.8863636,1.46590909 24.9204545,1.05681818 24.75,0.75 C24.5795455,0.409090909 24.2386364,0.204545455 23.8636364,0.170454545 C22.6022727,0.102272727 21.3409091,0.443181818 20.25,1.05681818 C18.4431818,2.11363636 17.2159091,3.92045455 16.9431818,6 C16.875,6.54545455 17.25,7.05681818 17.8295455,7.15909091 C18.4090909,7.22727273 18.8863636,6.85227273 18.9886364,6.27272727 C19.1931818,4.80681818 20.0113636,3.57954545 21.2727273,2.82954545 C21.5454545,2.65909091 21.8181818,2.55681818 22.125,2.45454545 C21.6477273,4.09090909 21.8522727,5.86363636 22.7386364,7.36363636 C23.625,8.86363636 25.0568182,9.92045455 26.6931818,10.3295455 C26.4545455,10.5340909 26.2159091,10.7045455 25.9431818,10.875 C25.6704545,11.0454545 25.3636364,11.1477273 25.0909091,11.25 C24.5454545,11.4204545 24.2727273,12 24.4431818,12.5454545 C24.5795455,12.9886364 24.9886364,13.2613636 25.3977273,13.2613636 C25.5,13.2613636 25.6022727,13.2613636 25.7045455,13.1931818 C26.1477273,13.0568182 26.5568182,12.8522727 26.9318182,12.6477273 C28.0227273,12 28.9090909,11.0795455 29.5227273,9.95454545 C29.7272727,9.64772727 29.6931818,9.23863636 29.4886364,8.93181818 L29.4886364,8.93181818 Z" id="Shape"></path>
                        <path d="M17.4886364,10.0227273 L17.1136364,10.0227273 C16.9772727,9.47727273 16.7727273,8.86363636 16.4318182,8.21590909 C15.3068182,6.10227273 13.2954545,4.94318182 10.8068182,4.94318182 C8.28409091,4.94318182 6.27272727,6.10227273 5.18181818,8.21590909 C4.84090909,8.89772727 4.63636364,9.57954545 4.5,10.125 C1.80681818,10.6022727 0,12.7159091 0,15.4772727 C0,16.9772727 0.579545455,18.3409091 1.60227273,19.3636364 C2.14772727,19.875 3,19.875 3.54545455,19.3295455 C4.05681818,18.7840909 4.05681818,17.9318182 3.51136364,17.3863636 C3,16.875 2.72727273,16.1931818 2.72727273,15.4431818 C2.72727273,13.8068182 3.92045455,12.7159091 5.69318182,12.7159091 C6.44318182,12.7159091 7.02272727,12.1363636 7.05681818,11.3863636 C7.05681818,11.0113636 7.26136364,7.60227273 10.7727273,7.60227273 C12.2727273,7.60227273 13.3295455,8.18181818 13.9772727,9.34090909 C14.5227273,10.3295455 14.5909091,11.3863636 14.5909091,11.3863636 C14.625,12.1022727 15.2386364,12.6818182 15.9545455,12.6818182 L17.4886364,12.6818182 C19.2613636,12.6818182 20.4545455,13.7727273 20.4545455,15.4090909 C20.4545455,16.6022727 19.7727273,17.5568182 18.6477273,17.9659091 C17.9318182,18.2045455 17.5568182,18.9886364 17.7954545,19.7045455 C18,20.2840909 18.5113636,20.625 19.0909091,20.625 C19.2272727,20.625 19.3977273,20.5909091 19.5340909,20.5568182 C21.75,19.8068182 23.1477273,17.7954545 23.1477273,15.4431818 C23.1818182,12.3068182 20.7613636,10.0227273 17.4886364,10.0227273 L17.4886364,10.0227273 Z" id="Shape"></path>
                    </g>
                </g>
            </g>
        </g>
    </g>
</svg>