<?xml version="1.0" encoding="UTF-8" standalone="no"?>
<svg width="30px" height="15px" viewBox="0 0 30 15" version="1.1" xmlns="http://www.w3.org/2000/svg" xmlns:xlink="http://www.w3.org/1999/xlink">
    <!-- Generator: Sketch 3.8.1 (29687) - http://www.bohemiancoding.com/sketch -->
    <title>50n</title>
    <desc>Created with Sketch.</desc>
    <defs></defs>
    <g id="Page-1" stroke="none" stroke-width="1" fill="none" fill-rule="evenodd">
        <g id="Desktop-HD" transform="translate(-133.000000, -216.000000)" fill="#FFFFFF">
            <g id="50n" transform="translate(133.000000, 216.000000)">
                <g id="Layer_1">
                    <g id="Group">
                        <path d="M6.16483516,3 L21.9230769,3 C22.6483516,3 23.2417582,2.40659341 23.2417582,1.68131868 C23.2417582,0.956043956 22.6483516,0.362637363 21.9230769,0.362637363 L6.16483516,0.362637363 C5.43956044,0.362637363 4.84615385,0.956043956 4.84615385,1.68131868 C4.84615385,2.40659341 5.43956044,3 6.16483516,3 L6.16483516,3 Z" id="Shape"></path>
                        <path d="M22.4175824,7.51648352 C22.4175824,6.79120879 21.8241758,6.1978022 21.0989011,6.1978022 L1.35164835,6.1978022 C0.626373626,6.1978022 0.032967033,6.79120879 0.032967033,7.51648352 C0.032967033,8.24175824 0.626373626,8.83516484 1.35164835,8.83516484 L21.0989011,8.83516484 C21.8241758,8.83516484 22.4175824,8.24175824 22.4175824,7.51648352 L22.4175824,7.51648352 Z" id="Shape"></path>
                        <path d="M28.6483516,12 L8.9010989,12 C8.17582418,12 7.58241758,12.5934066 7.58241758,13.3186813 C7.58241758,14.043956 8.17582418,14.6373626 8.9010989,14.6373626 L28.6483516,14.6373626 C29.3736264,14.6373626 29.967033,14.043956 29.967033,13.3186813 C29.967033,12.5934066 29.3736264,12 28.6483516,12 L28.6483516,12 Z" id="Shape"></path>
                        <path d="M25.8461538,3.16483516 L25.9120879,3.16483516 C26.7362637,3.16483516 27.3956044,2.50549451 27.3956044,1.68131868 C27.3956044,0.857142857 26.7362637,0.197802198 25.9120879,0.197802198 L25.8461538,0.197802198 C25.021978,0.197802198 24.3626374,0.857142857 24.3626374,1.68131868 C24.3626374,2.50549451 25.021978,3.16483516 25.8461538,3.16483516 L25.8461538,3.16483516 Z" id="Shape"></path>
                    </g>
                </g>
            </g>
        </g>
    </g>
</svg>