<svg width="14" height="14" viewBox="0 0 14 14" xmlns="http://www.w3.org/2000/svg" xmlns:xlink="http://www.w3.org/1999/xlink"><title>Shape</title><desc>Created using Figma</desc><g transform="translate(-3630 -529)"><path fill="#FFF" d="M3630 529h14v14h-14z"/><clipPath id="a" clip-rule="evenodd"><path d="M3591-32h375v1143h-375V-32z" fill="#FFF"/></clipPath><g clip-path="url(#a)"><use xlink:href="#b" transform="translate(3591 34)" fill="#E8EAF1"/><g filter="url(#c)"><use xlink:href="#d" transform="translate(3612 283)" fill="#FFF" filter="url(#e)"/><use xlink:href="#f" transform="translate(3630 529)" fill="#132054"/></g></g></g><defs><filter id="c" filterUnits="userSpaceOnUse" x="3608" y="281" width="342" height="288" color-interpolation-filters="sRGB"><feFlood flood-opacity="0" result="BackgroundImageFix"/><feColorMatrix in="SourceAlpha" values="0 0 0 0 0 0 0 0 0 0 0 0 0 0 0 0 0 0 255 0"/><feOffset dy="2"/><feGaussianBlur stdDeviation="2"/><feColorMatrix values="0 0 0 0 0.301924 0 0 0 0 0.301924 0 0 0 0 0.301924 0 0 0 0.1 0"/><feBlend in2="BackgroundImageFix" result="effect1_dropShadow"/><feBlend in="SourceGraphic" in2="effect1_dropShadow" result="shape"/></filter><filter id="e" filterUnits="userSpaceOnUse" x="3608" y="281" width="342" height="288" color-interpolation-filters="sRGB"><feFlood flood-opacity="0" result="BackgroundImageFix"/><feColorMatrix in="SourceAlpha" values="0 0 0 0 0 0 0 0 0 0 0 0 0 0 0 0 0 0 255 0"/><feOffset dy="2"/><feGaussianBlur stdDeviation="2"/><feColorMatrix values="0 0 0 0 0.301924 0 0 0 0 0.301924 0 0 0 0 0.301924 0 0 0 0.1 0"/><feBlend in2="BackgroundImageFix" result="effect1_dropShadow"/><feBlend in="SourceGraphic" in2="effect1_dropShadow" result="shape"/></filter><path id="b" fill-rule="evenodd" d="M0 0h375v1179H0V0z"/><path id="d" fill-rule="evenodd" d="M0 6a6 6 0 0 1 6-6h322a6 6 0 0 1 6 6v268a6 6 0 0 1-6 6H6a6 6 0 0 1-6-6V6z"/><path id="f" fill-rule="evenodd" d="M7 0C3.15 0 0 3.15 0 7s3.15 7 7 7 7-3.15 7-7-3.15-7-7-7zm0 12.6c-3.08 0-5.6-2.52-5.6-5.6 0-3.08 2.52-5.6 5.6-5.6 3.08 0 5.6 2.52 5.6 5.6 0 3.08-2.52 5.6-5.6 5.6zm.35-9.1H6.3v4.2l3.64 2.24.56-.91-3.15-1.89V3.5z"/></defs></svg>