<svg class="top-bar__logo" xmlns="http://www.w3.org/2000/svg" viewBox="0 50 225 60">
    <path d="M0 72.125V94.25h12V50H0v22.125zM20.25 72.125V94.25h12V50h-12v22.125zM40.5 74v24h24v12h12V74h-12v12h-12V50h-12v24zM84.75 74v24H108v12h12V74h-12v12H96.75V50h-12v24zM128.25 74v24h24v12h12V74h-12v12h-12V50h-12v24zM172.5 72.125V94.25h12V50h-12v22.125zM192.75 72.125V94.25h12V50h-12v22.125zM213 72.125V94.25h12V50h-12v22.125zM0 104v6h12V98H0v6zM20.25 104v6h12V98h-12v6zM172.5 104v6h12V98h-12v6zM192.75 104v6h12V98h-12v6zM213 104v6h12V98h-12v6z"></path>
</svg>