<svg xmlns="http://www.w3.org/2000/svg" width="209.435" height="93.224" viewBox="0 0 209.435 93.224">
  <g id="Symbol_63_3" data-name="Symbol 63 – 3" transform="translate(7990.523 764)">
    <path id="Path_520" data-name="Path 520" d="M18.073,0,16.585-3.844H7.192L5.673,0H-.155L9.176-21.731H15L24.118,0ZM8.9-8.184h6.014l-2.976-7.75ZM26.071-21.731h5.673v16.9h9.207V0H26.071Zm17.453,0H59.768L59.737-17.2H49.2v4.836h9.734v4.526H49.2V0H43.524ZM77.221,0,75.733-3.844H66.34L64.821,0H58.993l9.331-21.731h5.828L83.266,0ZM68.045-8.184h6.014l-2.976-7.75ZM85.219-21.731h5.673v8.866h8.773v-8.866h5.673V0H99.665V-8.339H90.892V0H85.219Zm24.335,0h5.673V0h-5.673Zm3.782-6.851,4.557,1.736L113.4-23.281l-3.782-.31ZM132.494,0l-3.162-6.014h-4.216V0h-5.673V-21.731h9.765a10.07,10.07,0,0,1,6.681,2,6.955,6.955,0,0,1,2.371,5.627,8.569,8.569,0,0,1-.992,4.231A6.858,6.858,0,0,1,134.385-7.1L138.911,0Zm-7.378-10.54h4.123a3.823,3.823,0,0,0,2.682-.868,3.238,3.238,0,0,0,.945-2.511,3.108,3.108,0,0,0-.945-2.434,3.868,3.868,0,0,0-2.682-.852h-4.123Z" transform="translate(-7920 -728)" fill="#242424"/>
    <g id="Group_959" data-name="Group 959" transform="translate(-7990.523 -764)">
      <path id="Path_48" data-name="Path 48" d="M0,49l3.126,4.121H39.08L32.685,49Z" transform="translate(0 20.634)" fill="#2e2a2b"/>
      <path id="Path_49" data-name="Path 49" d="M0,69.634H30.7l15.49,18.474L59.544,0H10.658Z" fill="#e32828"/>
      <path id="Path_50" data-name="Path 50" d="M25.469,7,8.7,55.886h8.669L29.874,16.663V37.98H26.179l-2.132,7.39h5.826v8.1h7.532V7Z" transform="translate(3.664 2.948)" fill="#fff"/>
      <path id="Path_51" data-name="Path 51" d="M32.5,88.108l3.837,5.116L49.553,4.832,45.858,0Z" transform="translate(13.686)" fill="#2e2a2b"/>
    </g>
  </g>
</svg>