<?xml version="1.0" encoding="UTF-8"?>
<!-- Generator: Adobe Illustrator 22.0.1, SVG Export Plug-In . SVG Version: 6.00 Build 0)  -->
<svg version="1.1" id="Layer_1" xmlns="http://www.w3.org/2000/svg" xmlns:xlink="http://www.w3.org/1999/xlink" x="0px" y="0px" viewBox="0 0 115.6 45.6" style="enable-background:new 0 0 115.6 45.6;" xml:space="preserve">
<style type="text/css">
	.st0{fill:#FF2932;}
</style>
<g>
	<g>
		<path class="st0" d="M107.9,5.4l2.3,26l-102.5,9l-2.3-26L107.9,5.4 M112.4,0L0,9.8l3.1,35.8l112.4-9.8L112.4,0L112.4,0z"/>
	</g>
	<g>
		<path class="st0" d="M16.5,20.1l4.4-0.4l5.9,11.9L22.2,32l-0.8-1.8l-3.9,0.3L17,32.4l-4.4,0.4L16.5,20.1z M19,24.2l-0.7,3.1l2-0.2    L19,24.2z"/>
		<path class="st0" d="M32.4,31.2l-4.1,0.4l-0.8-8.8l-3,0.3l-0.3-3.5l10.2-0.9l0.3,3.5l-3,0.3L32.4,31.2z"/>
		<path class="st0" d="M35.4,18.5l4.2-0.4l0.8,8.8l4.5-0.4l0.3,3.6l-8.7,0.8L35.4,18.5z"/>
		<path class="st0" d="M47.5,17.4l4.4-0.4l5.9,11.9l-4.5,0.4l-0.8-1.8l-3.9,0.3l-0.5,1.9l-4.4,0.4L47.5,17.4z M50.1,21.5l-0.7,3.1    l2-0.2L50.1,21.5z"/>
		<path class="st0" d="M63.5,28.4l-4.1,0.4L58.6,20l-3,0.3l-0.3-3.5l10.2-0.9l0.3,3.5l-3,0.3L63.5,28.4z"/>
		<path class="st0" d="M71.9,28.1c-0.5,0-1,0-1.5,0s-1-0.1-1.4-0.3c-0.5-0.1-0.9-0.3-1.3-0.5s-0.8-0.4-1.1-0.7l2.3-3    c0.3,0.3,0.7,0.5,1.2,0.7s1,0.3,1.5,0.2c0.2,0,0.4-0.1,0.6-0.2s0.3-0.3,0.2-0.5c0-0.1-0.1-0.2-0.1-0.3c-0.1-0.1-0.2-0.1-0.4-0.2    c-0.2-0.1-0.4-0.1-0.7-0.2c-0.3-0.1-0.7-0.2-1.1-0.3c-0.4-0.1-0.8-0.2-1.2-0.4c-0.4-0.2-0.8-0.4-1.1-0.6c-0.3-0.3-0.6-0.6-0.8-0.9    c-0.2-0.4-0.3-0.8-0.4-1.4c-0.1-0.8,0-1.4,0.3-2s0.6-1,1.1-1.4c0.5-0.4,1-0.7,1.6-0.9s1.2-0.3,1.8-0.4c0.8-0.1,1.7,0,2.5,0.3    c0.9,0.2,1.6,0.6,2.3,1.2l-2.3,2.9c-0.3-0.3-0.7-0.6-1.1-0.7s-0.8-0.2-1.1-0.2c-0.3,0-0.5,0.1-0.7,0.2s-0.3,0.3-0.2,0.5    c0,0.2,0.1,0.3,0.3,0.4c0.2,0.1,0.5,0.2,1,0.3c0.5,0.1,0.9,0.2,1.4,0.4c0.5,0.1,1,0.3,1.4,0.6c0.4,0.3,0.8,0.6,1.1,1    c0.3,0.4,0.5,0.9,0.5,1.6c0.1,0.7,0,1.4-0.3,2c-0.2,0.6-0.6,1.1-1,1.5s-1,0.7-1.6,1C73.1,27.9,72.5,28,71.9,28.1z"/>
		<path class="st0" d="M77.8,23.7l4.1-5.8l-4.4,0.4l-0.3-3.4L87,14l0.3,3l-4.4,6.2l5-0.4l0.3,3.5L78,27.2L77.8,23.7z"/>
		<path class="st0" d="M88.8,19.9c-0.1-1,0-1.9,0.3-2.7c0.3-0.8,0.7-1.5,1.3-2.2c0.6-0.6,1.2-1.1,2.1-1.5c0.8-0.4,1.7-0.6,2.7-0.7    c1-0.1,1.9,0,2.8,0.2s1.6,0.6,2.3,1.1c0.7,0.5,1.2,1.1,1.6,1.9s0.7,1.6,0.8,2.6c0.1,1,0,1.9-0.3,2.7c-0.3,0.8-0.7,1.6-1.3,2.2    c-0.6,0.6-1.3,1.1-2.1,1.5c-0.8,0.4-1.7,0.6-2.7,0.7s-1.9,0-2.8-0.2s-1.6-0.6-2.3-1.1c-0.7-0.5-1.2-1.2-1.6-2    C89.1,21.8,88.9,20.9,88.8,19.9z M93.2,19.6c0,0.4,0.1,0.8,0.3,1.1c0.2,0.3,0.3,0.6,0.6,0.8c0.2,0.2,0.5,0.4,0.8,0.5    s0.6,0.1,1,0.1c0.3,0,0.7-0.1,0.9-0.3c0.3-0.2,0.5-0.4,0.7-0.6c0.2-0.3,0.3-0.6,0.4-0.9s0.1-0.7,0.1-1.1s-0.1-0.8-0.3-1.1    c-0.1-0.3-0.3-0.6-0.6-0.8c-0.2-0.2-0.5-0.4-0.8-0.5s-0.6-0.1-1-0.1c-0.3,0-0.7,0.1-1,0.3c-0.3,0.2-0.5,0.4-0.7,0.6    s-0.3,0.5-0.4,0.9C93.2,18.8,93.1,19.2,93.2,19.6z"/>
	</g>
</g>
</svg>