<svg enable-background="new 0 0 656.6 181.6" height="181.6" viewBox="0 0 656.6 181.6" width="656.6" xmlns="http://www.w3.org/2000/svg"><g clip-rule="evenodd" fill-rule="evenodd"><path d="m18.2 140.9v-3.1c-4.5-.8-7.8-4.3-7.8-12.1v-112.5h.9l18.4 127.7h3l14-129.2h.8v126h-6.2v3.1h30v-3.1h-6v-134.6h5.7v-3.1h-25.8l-7.5 68.8h-.9l-10-68.8h-25.7v3.1h6.2v121.8c0 7.4-2.2 11.3-7.2 12.9v3.1z"/><path d="m116.7 61.4c0-22.2-11.7-23-17.5-23-12.9 0-19.8 9.5-19.8 19.5 0 7.4 2.8 11.5 8.6 11.5 4.6 0 7.8-4.9 7.8-10.5 0-4.7-2.9-9.3-6.8-9.3-1.7 0-3.4.4-4.6.8 1.7-4.9 6.5-8.4 10.8-8.4 4.8 0 6 2.3 6 16.4v12.3c-21.2 4.6-24 6.5-24 40.2 0 20.8.8 32.1 13.5 32.1 5.4 0 10.2-3.1 11.1-9.7h.3c1.2 6.8 6 9.7 11.5 9.7 5.2 0 11.1-2.5 11.7-19.7h-2.5c-.5 10.3-2.5 13.1-4 13.1-1.4 0-2.2-.6-2.2-5.8v-69.2zm-23.9 26.3c0-11.4 1.5-11.9 8.5-13.4v47.6c0 7-.2 13.4-4.3 13.4-4.2 0-4.2-3.7-4.2-8z"/><path d="m150.4 38.4c5.9 0 6.2 1.5 9 2.6.1.2 1.3.8 2.6 2.5.7 1 2 2.6 4.6 8.1 3.4 7.2 4.3 16.9 4.3 28.8 0 18.9-4.8 43.1-20.9 43.1-2.6 0-4.2-.6-6-.6-5.1 0-7.8 1.9-7.8 5 0 16.2 35.2-8.5 36.3 28.3.6 17.7-11.1 25.3-24 25.3-9.8 0-21.1-5.1-21.1-19.7 0-6.6 3.8-10.7 8-13.8-4.2-3.5-6-7.2-6-13.9 0-9.3 6.3-13.2 12.5-13.6v-.4c-6.6-5.8-10.9-17.3-10.9-36-.1-38.1 11-45.7 19.4-45.7zm-12.4 111.4c-2.6 2.5-3.8 6.8-3.8 10.9 0 10.9 7.4 17.1 15.5 17.1 11.8 0 17.5-7 17.5-15.4 0-9.7-5.5-10.1-14-10.5-6.7-.1-11.7.1-15.2-2.1zm8.9-102.1v63.9c0 6.4.6 8.8 3.8 8.8 2.9 0 4.2-2.5 4.2-8v-63.9c0-5.5-1.5-7-4-7-3.4 0-4 2.5-4 6.2z"/><path d="m194.5 42.9h4v-3.1h-23.4v3.1h4l17 103.5c-2.6 23.4-6.2 30.4-11.4 30.4-2 0-4 0-4-1.6s7.5-2.7 7.5-12.3c0-5.7-2.9-9.4-8-9.4s-7.7 6-7.7 11.9c0 7.6 3.4 14.6 11.2 14.6 8.2 0 11.5-10.5 12.8-18.7l18.2-110.3c.5-3.7 1.2-7.6 4.8-8.2v-3.1h-13.8v3.1c4 1 5.4 3.1 5.4 8.2 0 2.1-.2 4.5-.5 6.6l-7.1 44.4h-.3z"/><path d="m298.3 137.7h-5.7v-75.2c0-12.7 5.7-21.4 9.5-21.4 1.2 0 2.9 1 3.7 2.3-5.1 3.9-7.4 10.5-7.4 17.5 0 9.2 2.9 12.7 6.8 12.7 6.5 0 8-9.2 8-15.6 0-8.8-3.2-19.7-10.8-19.7-6.3 0-8.9 7.8-10.3 12.3l-.3.4v-11.3h-19.1v3.1h4.3v94.9h-4.3v3.1h25.5v-3.1z"/><path d="m365 140.9v-3.1c-4.3.2-7.8-2.7-7.8-13.2v-93c.2 0 .3-.2.5 0l34.8 110.9h2.5v-128.7c0-6.8 3.2-10.5 7.2-10.7v-3.1h-17.7v3.1c4.5.4 7.4 2.7 7.4 11.5v56.7h-.3c0 .4-19.5-71.1-19.6-71.3h-23.9v3.1h6.2v121c0 8.8-2.6 12.5-8.3 13.6v3.1h19z"/><path d="m449 95.2c0-44.6-9.4-56.9-21.2-56.9-18.8.1-21.1 27.7-21.1 53.7 0 37.4 8.8 50.8 20.6 50.8 15.7 0 20.3-15.8 21.4-39.2h-2.6c-1.5 19.5-6.5 35.5-15.7 35.5-5.2 0-7.4-2.9-7.4-11.1v-32.8zm-26-3.5v-41.6c0-5.8.9-9 5.1-9 3.8 0 5.2 3.1 5.2 13.2v37.4z"/><path d="m476.6 140.9v-3.1h-2.8v-77.2c0-9.2 3.1-14.6 5.7-14.6 2.5 0 3.2 2.7 3.2 9.9v81.8h-2.6v3.1h20.8v-3.1h-2.6v-77.1c0-9.2 3.1-14.6 5.7-14.6 2.5 0 3.2 2.7 3.2 9.9v81.8h-2.5v3.1h22v-3.1h-4v-77c0-11.7-2.6-22.4-12.5-22.4-5.5 0-10.5 4.7-12.3 11.1h-.3c-1.2-7.2-5.1-11.1-10.9-11.1-5.7 0-10.8 4.3-12.9 10.7l-.3-.2v-9.2h-19.4v3.1h4.2v94.9h-4.2v3.1h22.5z"/><path d="m535.6 78.7h2c3.5-31.4 6.9-35.8 14.6-35.8h3.7l-25.2 96.4v1.6h38.6v-41.5h-1.8c-4.9 33.9-8.9 38.4-16.8 38.4h-4.3l24.6-98h-35.4z"/><path d="m618.5 95.2c0-44.6-9.4-56.9-21.2-56.9-18.8 0-21.1 27.7-21.1 53.6 0 37.4 8.8 50.8 20.6 50.8 15.7 0 20.3-15.8 21.4-39.2h-2.6c-1.5 19.5-6.5 35.5-15.7 35.5-5.2 0-7.4-2.9-7.4-11.1v-32.7zm-26-3.5v-41.6c0-5.8.9-9 5.1-9 3.8 0 5.2 3.1 5.2 13.2v37.4z"/><path d="m655.7 42.9v-3.1h-10.9v-34h-1.5c-3.5 14.6-10.6 27.5-19.4 35.1v1.9h5.4v82.4c0 11.1 4.3 17.5 13.5 17.5 9.4 0 13.8-6.8 13.8-37.4h-2.6c-.3 23.8-2.9 31.4-6.3 31.4-2 0-2.9-.8-2.9-6v-87.8z"/><path d="m261.5 61.4c0-22.2-11.7-23-17.5-23-12.9 0-19.8 9.5-19.8 19.5 0 7.4 2.8 11.5 8.6 11.5 4.6 0 7.8-4.9 7.8-10.5 0-4.7-2.9-9.3-6.8-9.3-1.7 0-3.4.4-4.6.8 1.7-4.9 6.5-8.4 10.8-8.4 4.8 0 6 2.3 6 16.4v12.3c-21.2 4.6-24 6.5-24 40.2 0 20.8.8 32.1 13.5 32.1 5.4 0 10.2-3.1 11.1-9.7h.3c1.2 6.8 6 9.7 11.5 9.7 5.2 0 11.1-2.5 11.7-19.7h-2.5c-.5 10.3-2.5 13.1-4 13.1-1.4 0-2.2-.6-2.2-5.8v-69.2zm-24 26.3c0-11.4 1.5-11.9 8.5-13.4v47.6c0 7-.2 13.4-4.3 13.4-4.2 0-4.2-3.7-4.2-8z"/><path d="m157.9 41.5c0-2.7 2.3-7.6 5.5-7.6.8 0 .9.6.5 1.2-.2 1-1.1 1.2-1.1 4.3 0 4.3 2.2 6.4 5.7 6.4 2.6 0 4.5-2.9 4.5-6.8 0-5.3-3.4-9.9-7.5-9.9-4.5 0-7.4 3.1-9.8 10.5z"/></g></svg>