<svg xmlns="http://www.w3.org/2000/svg" width="224.357" height="68.131"><path fill="#643A89" d="M68.126 34.063c0 18.811-15.251 34.068-34.06 34.068C15.251 68.131 0 52.873 0 34.063 0 15.249 15.251 0 34.066 0c18.809 0 34.06 15.249 34.06 34.063z"/><path fill="#FFF" d="M49.564 29.902l-1.976 6.605 6.407 2.586-23.693 11.415L23.9 47.93l1.969-6.604z"/><path fill="#FFE35A" d="M19.47 38.729l1.976-6.604-6.407-2.586 23.693-11.416 6.402 2.579-1.969 6.605z"/><path d="M100.927 51.356V31.117l-9.478 8.635-9.484-8.635v20.239h-6.608V18.287h2.271L91.45 30.832l13.775-12.545h2.31v33.069h-6.608zm35.632-26.465h-15.428v6.084h12.738v6.604h-12.738v7.174h15.287v6.604h-21.895v-33.07h22.035v6.604zm-12.743-9.25l10.24-4.766-5.422-3.865-7.646 6.607 2.828 2.024zm35.039 35.715l-6.18-13.258h-3.299v13.215h-6.605V18.241h12.453c5.471 0 9.91 4.477 9.91 9.948a9.87 9.87 0 0 1-5.801 9.02l6.551 14.147h-7.029zm-9.478-26.507v6.646h5.848a3.282 3.282 0 0 0 3.305-3.306c0-1.838-1.459-3.341-3.305-3.341h-5.848zm43.543 1.456c-6.422-4.146-16.088-.284-16.088 8.588 0 9.293 10.232 13.023 16.467 8.311l4.244 4.855c-2.971 2.449-6.791 3.96-10.945 3.96-9.436 0-17.129-7.69-17.129-17.126s7.693-17.129 17.129-17.129c3.961 0 7.645 1.371 10.572 3.637l-4.25 4.904zm31.437-1.414h-15.432v6.084h12.742v6.604h-12.742v7.174h15.289v6.604H202.32v-33.07h22.037v6.604z" fill="#643A89"/></svg>