<svg xmlns="http://www.w3.org/2000/svg" viewBox="0 0 300 70"><rect fill="#157efc" width="300" height="70"></rect><g fill="#fff"><path d="M64.33,23c-.39,0-.95.12-1.68.23a4.39,4.39,0,0,0-2,.82A3.21,3.21,0,0,0,59.59,26a18.81,18.81,0,0,0-.32,4V51.28H55.54L37,28.31V42.26a17,17,0,0,0,.34,3.95,3.61,3.61,0,0,0,1.12,2,5.21,5.21,0,0,0,1.8.82,20.18,20.18,0,0,0,2,.48v1.63H29.48V49.48a13.29,13.29,0,0,0,1.88-.3,5,5,0,0,0,1.77-.74,3.13,3.13,0,0,0,1.12-1.83,19.35,19.35,0,0,0,.3-4.12V28.41a5.94,5.94,0,0,0-.33-2,4.09,4.09,0,0,0-1-1.6,5.67,5.67,0,0,0-1.69-1.12,10.63,10.63,0,0,0-2.17-.64V21.4H40.54L56.79,41.5V30.25a16.45,16.45,0,0,0-.36-4,3.63,3.63,0,0,0-1.13-1.93,5.27,5.27,0,0,0-1.8-.83A18.53,18.53,0,0,0,51.58,23V21.4H64.33Z"></path><path d="M93.47,29H91.87a11.13,11.13,0,0,0-2.09-3.42,5.67,5.67,0,0,0-3-2,9.06,9.06,0,0,0-1.75-.18l-1.85,0H78.91V34.76H82a7.51,7.51,0,0,0,2.09-.27,4,4,0,0,0,1.72-1,5.34,5.34,0,0,0,1-1.7,10.31,10.31,0,0,0,.64-2.12H89V42H87.39a10.63,10.63,0,0,0-.64-2.21,6.15,6.15,0,0,0-1-1.83,3.56,3.56,0,0,0-1.63-1A7.55,7.55,0,0,0,82,36.67H78.91v8.57a9.07,9.07,0,0,0,.2,2.13,2.12,2.12,0,0,0,.74,1.2,3,3,0,0,0,1.44.52,19.27,19.27,0,0,0,2.48.13l1.76,0a15.81,15.81,0,0,0,1.8-.13A11.16,11.16,0,0,0,89,48.75a2.4,2.4,0,0,0,1.14-.61A17.16,17.16,0,0,0,92.38,45,23,23,0,0,0,94,41.86h1.53L95,51.12H67.12V49.48c.39,0,.92-.09,1.59-.17A6.36,6.36,0,0,0,70.13,49a2,2,0,0,0,1.07-.85,2.81,2.81,0,0,0,.27-1.31v-21a3,3,0,0,0-.23-1.25,2.12,2.12,0,0,0-1.11-.89,7.54,7.54,0,0,0-1.53-.46c-.66-.14-1.15-.23-1.49-.27V21.4H93.47ZM88,14.09a2,2,0,0,1-.54,1.45,4.57,4.57,0,0,1-1.57,1q-1.17.48-3.52,1.34T76.88,20l-.69-.86q2.14-2,3.25-3.16t2.3-2.41a5.82,5.82,0,0,1,1.53-1.21A3.32,3.32,0,0,1,84.82,12a4.07,4.07,0,0,1,2.25.58A1.74,1.74,0,0,1,88,14.09Z"></path><path d="M125.52,28.83a8.55,8.55,0,0,1-1,4.32,8.21,8.21,0,0,1-2.86,2.94,13.47,13.47,0,0,1-4.3,1.7,25.68,25.68,0,0,1-5.44.52h-2.43v8.35a2.87,2.87,0,0,0,.28,1.31,2,2,0,0,0,1.08.89,8.68,8.68,0,0,0,1.36.36q.94.19,1.59.25v1.63H97.66V49.48l1.61-.18a5.72,5.72,0,0,0,1.4-.28,2,2,0,0,0,1.08-.82,2.82,2.82,0,0,0,.26-1.34v-21a2.94,2.94,0,0,0-.25-1.27,2,2,0,0,0-1.09-.89,8.2,8.2,0,0,0-1.56-.45c-.65-.13-1.13-.22-1.46-.26V21.4h16.4q5.76,0,8.61,1.83A6.2,6.2,0,0,1,125.52,28.83Zm-8.17,1.07a7.67,7.67,0,0,0-1.35-5q-1.35-1.62-4.81-1.62h-1.74v13h.88a7.67,7.67,0,0,0,5.23-1.58A6.17,6.17,0,0,0,117.35,29.9Z"></path><path d="M140.66,51.93a18.22,18.22,0,0,1-5.08-.68,18.73,18.73,0,0,1-4-1.6l-1.44,1.47h-1.78l-.27-10.75h1.8a27.56,27.56,0,0,0,1.55,3.23,15.76,15.76,0,0,0,2.18,3,11.3,11.3,0,0,0,2.86,2.29,7.49,7.49,0,0,0,3.7.88,6.23,6.23,0,0,0,4.37-1.4,4.56,4.56,0,0,0,1.52-3.51A3.82,3.82,0,0,0,144.77,42a10.79,10.79,0,0,0-4-2l-3.23-1.05q-1.48-.48-2.77-1a9.19,9.19,0,0,1-4.45-3.42,8.87,8.87,0,0,1-1.45-5,7.77,7.77,0,0,1,.75-3.35,8.86,8.86,0,0,1,2.2-2.88,10.77,10.77,0,0,1,3.54-2,14.07,14.07,0,0,1,4.69-.75,15.15,15.15,0,0,1,4.63.69,19.11,19.11,0,0,1,3.39,1.38l1.28-1.26h1.82l.17,10.13h-1.8q-.63-1.64-1.48-3.35a14.5,14.5,0,0,0-1.79-2.84,8.13,8.13,0,0,0-2.37-1.94,6.52,6.52,0,0,0-3.14-.72,5.35,5.35,0,0,0-3.7,1.28,4.07,4.07,0,0,0-1.43,3.17A3.76,3.76,0,0,0,136.88,30a10.78,10.78,0,0,0,3.89,2l3.16,1.05q1.62.52,2.87,1a10.32,10.32,0,0,1,4.62,3.24,8.7,8.7,0,0,1,.68,8.86,8.65,8.65,0,0,1-2.43,3,12.41,12.41,0,0,1-3.87,2A16.69,16.69,0,0,1,140.66,51.93Z"></path><path d="M183.85,41.09l-1,10h-27.9V49.85L174.16,23.3h-6.52a24.82,24.82,0,0,0-2.87.12,5.64,5.64,0,0,0-1.65.47,5.07,5.07,0,0,0-2,1.78,41.21,41.21,0,0,0-2.91,4.8h-1.7l.92-9.07h25.85v1.26L164.07,49.21h7.48a26,26,0,0,0,4.79-.28,3.17,3.17,0,0,0,1.86-1,24.34,24.34,0,0,0,2.21-3.18,38.08,38.08,0,0,0,1.88-3.64Z"></path><path d="M219.58,51.12H203.39V49.48a20.13,20.13,0,0,0,2.65-.41c1-.22,1.53-.48,1.53-.8a2.93,2.93,0,0,0,0-.38,2.7,2.7,0,0,0-.18-.57l-2.54-6.16H194.56q-.35.86-.78,2c-.28.77-.53,1.45-.74,2.05a10.54,10.54,0,0,0-.47,1.7,6.18,6.18,0,0,0-.07.73c0,.45.34.83,1,1.14a11,11,0,0,0,3.38.68v1.63H184.7V49.48a11.31,11.31,0,0,0,1.56-.22,4.23,4.23,0,0,0,1.37-.49,5.34,5.34,0,0,0,1.45-1.23,6.52,6.52,0,0,0,1-1.74L195,34l5.39-13h4.19q4.1,10.1,6.43,16t4,9.72a4.9,4.9,0,0,0,.69,1.14,4.46,4.46,0,0,0,1.2,1,4.79,4.79,0,0,0,1.36.5,9.91,9.91,0,0,0,1.4.21ZM204,39.1l-4.3-10.74L195.42,39.1Z"></path><path d="M245.52,23.07a6.54,6.54,0,0,0-1.32.25,5.71,5.71,0,0,0-1.3.59,5.17,5.17,0,0,0-1.4,1.12,7.65,7.65,0,0,0-1,1.64q-.65,1.45-1.82,4.22L236,37.21q-1.34,3.18-2.9,7l-3,7.27h-4.21q-2.93-7.18-6-14.6T215.7,26.55a7.24,7.24,0,0,0-.93-1.58,5.51,5.51,0,0,0-1.43-1.1,6.23,6.23,0,0,0-1.26-.55,10.59,10.59,0,0,0-1.44-.28V21.4h16.11V23a15.44,15.44,0,0,0-3.07.58c-.54.2-.8.46-.8.77a1.85,1.85,0,0,0,.07.49c0,.17.12.41.22.7q.67,1.84,2.43,6t5.21,12.73q2.12-5.21,3.52-8.81t2.47-6.36q.53-1.34.87-2.5a6.79,6.79,0,0,0,.35-1.75c0-.44-.32-.82-1-1.12a11.65,11.65,0,0,0-3.56-.66V21.4h12Z"></path><path d="M270.65,51.12H254.45V49.48a20.15,20.15,0,0,0,2.65-.41c1-.22,1.53-.48,1.53-.8a2.2,2.2,0,0,0-.21-.95l-2.54-6.16H245.63c-.23.57-.5,1.24-.78,2s-.53,1.45-.74,2.05a10.73,10.73,0,0,0-.47,1.7,6.08,6.08,0,0,0-.07.73c0,.45.34.83,1,1.14a11,11,0,0,0,3.38.68v1.63H235.77V49.48a11.22,11.22,0,0,0,1.56-.22,4.23,4.23,0,0,0,1.38-.49,5.37,5.37,0,0,0,1.45-1.23,6.54,6.54,0,0,0,1-1.74L246,34q2.44-5.91,5.39-13h4.19q4.11,10.1,6.43,16t4,9.72a4.9,4.9,0,0,0,.69,1.14,4.47,4.47,0,0,0,1.19,1,4.83,4.83,0,0,0,1.36.5,9.83,9.83,0,0,0,1.4.21ZM255,39.1l-4.3-10.74L246.49,39.1Z"></path></g></svg>