<?xml version="1.0" encoding="UTF-8"?>
<svg width="151px" height="36px" viewBox="0 0 151 36" version="1.1" xmlns="http://www.w3.org/2000/svg" xmlns:xlink="http://www.w3.org/1999/xlink">
    <!-- Generator: Sketch 45.2 (43514) - http://www.bohemiancoding.com/sketch -->
    <title>Page 1</title>
    <desc>Created with Sketch.</desc>
    <defs/>
    <g id="Page-1" stroke="none" stroke-width="1" fill="none" fill-rule="evenodd">
        <g fill="#FEFEFE">
            <polygon id="Fill-8" points="139.667 1.872 150.708 1.872 150.708 35.475 138.227 35.475 138.227 19.393 131.267 28.034 124.306 19.393 124.306 35.475 111.825 35.475 111.825 1.872 122.865 1.872 131.267 12.434"/>
            <polygon id="Fill-1" points="0.72 1.8723 0.72 13.3923 12 13.3923 0 23.9533 0 35.4743 28.801 35.4743 28.801 23.9533 16.321 23.9533 28.322 13.3923 28.322 1.8723"/>
            <path d="M96.9219,17.7617 C96.9219,16.8657 96.7379,16.0097 96.3699,15.1937 C96.0019,14.3767 95.5139,13.6647 94.9059,13.0567 C94.2979,12.4497 93.5859,11.9607 92.7709,11.5927 C91.9539,11.2247 91.0979,11.0407 90.2009,11.0407 C89.3059,11.0407 88.4489,11.2247 87.6339,11.5927 C86.8169,11.9607 86.1059,12.4497 85.4979,13.0567 C84.8889,13.6647 84.4009,14.3767 84.0329,15.1937 C83.6659,16.0097 83.4819,16.8657 83.4819,17.7617 C83.4819,18.6567 83.6659,19.5137 84.0329,20.3297 C84.4009,21.1457 84.8889,21.8587 85.4979,22.4657 C86.1059,23.0737 86.8169,23.5627 87.6339,23.9297 C88.4489,24.2977 89.3059,24.4827 90.2009,24.4827 C91.0979,24.4827 91.9539,24.2977 92.7709,23.9297 C93.5859,23.5627 94.2979,23.0737 94.9059,22.4657 C95.5139,21.8587 96.0019,21.1457 96.3699,20.3297 C96.7379,19.5137 96.9219,18.6567 96.9219,17.7617 M109.4029,17.7617 C109.4029,20.1617 108.9239,22.4337 107.9629,24.5777 C107.0029,26.7227 105.6659,28.6097 103.9549,30.2417 C102.2419,31.8737 100.2109,33.1627 97.8579,34.1067 C95.5059,35.0507 92.9529,35.5227 90.2009,35.5227 C87.4489,35.5227 84.8979,35.0507 82.5449,34.1067 C80.1929,33.1627 78.1599,31.8737 76.4489,30.2417 C74.7359,28.6097 73.4009,26.7227 72.4399,24.5777 C71.4809,22.4337 71.0009,20.1617 71.0009,17.7617 C71.0009,15.3617 71.4809,13.0887 72.4399,10.9457 C73.4009,8.8007 74.7359,6.9117 76.4489,5.2817 C78.1599,3.6487 80.1929,2.3617 82.5449,1.4157 C84.8979,0.4727 87.4489,-0.0003 90.2009,-0.0003 C92.9529,-0.0003 95.5059,0.4727 97.8579,1.4157 C100.2109,2.3617 102.2419,3.6487 103.9549,5.2817 C105.6659,6.9117 107.0029,8.8007 107.9629,10.9457 C108.9239,13.0887 109.4029,15.3617 109.4029,17.7617" id="Fill-5"/>
            <path d="M56.6006,17.7617 C56.6006,16.8657 56.4156,16.0097 56.0486,15.1937 C55.6796,14.3767 55.1916,13.6647 54.5836,13.0567 C53.9766,12.4497 53.2646,11.9607 52.4486,11.5927 C51.6326,11.2247 50.7756,11.0407 49.8796,11.0407 C48.9836,11.0407 48.1276,11.2247 47.3116,11.5927 C46.4956,11.9607 45.7836,12.4497 45.1756,13.0567 C44.5676,13.6647 44.0776,14.3767 43.7116,15.1937 C43.3436,16.0097 43.1606,16.8657 43.1606,17.7617 C43.1606,18.6567 43.3436,19.5137 43.7116,20.3297 C44.0776,21.1457 44.5676,21.8587 45.1756,22.4657 C45.7836,23.0737 46.4956,23.5627 47.3116,23.9297 C48.1276,24.2977 48.9836,24.4827 49.8796,24.4827 C50.7756,24.4827 51.6326,24.2977 52.4486,23.9297 C53.2646,23.5627 53.9766,23.0737 54.5836,22.4657 C55.1916,21.8587 55.6796,21.1457 56.0486,20.3297 C56.4156,19.5137 56.6006,18.6567 56.6006,17.7617 M69.0806,17.7617 C69.0806,20.1617 68.6016,22.4337 67.6416,24.5777 C66.6816,26.7227 65.3436,28.6097 63.6326,30.2417 C61.9196,31.8737 59.8886,33.1627 57.5366,34.1067 C55.1846,35.0507 52.6326,35.5227 49.8796,35.5227 C47.1266,35.5227 44.5766,35.0507 42.2236,34.1067 C39.8706,33.1627 37.8386,31.8737 36.1266,30.2417 C34.4146,28.6097 33.0796,26.7227 32.1196,24.5777 C31.1586,22.4337 30.6786,20.1617 30.6786,17.7617 C30.6786,15.3617 31.1586,13.0887 32.1196,10.9457 C33.0796,8.8007 34.4146,6.9117 36.1266,5.2817 C37.8386,3.6487 39.8706,2.3617 42.2236,1.4157 C44.5766,0.4727 47.1266,-0.0003 49.8796,-0.0003 C52.6326,-0.0003 55.1846,0.4727 57.5366,1.4157 C59.8886,2.3617 61.9196,3.6487 63.6326,5.2817 C65.3436,6.9117 66.6816,8.8007 67.6416,10.9457 C68.6016,13.0887 69.0806,15.3617 69.0806,17.7617" id="Fill-2"/>
        </g>
    </g>
</svg>